<svg xmlns="http://www.w3.org/2000/svg" viewBox="0 0 64 64"><g data-name="graduation cap-pen-pencil-education"><rect width="6" height="19" x="40" y="32" fill="#64c37d"/><rect width="6" height="6" x="29" y="34" fill="#ff5023"/><path fill="#d80027" d="M59,23v4H55V23a2.006,2.006,0,0,1,2-2,2.015,2.015,0,0,1,2,2Z"/><polygon fill="#ffda44" points="61 11 61 13 32 19 3 13 3 11 32 3 61 11"/><path fill="#ff9811" d="M51,15.07V29c0,2.97-5,5.5-12.07,6.52A48.763,48.763,0,0,1,32,36c-10.49,0-19-3.13-19-7V15.07L32,19Z"/><path fill="#9bfbff" d="M15,32.13c1.92,1.41,5.1,2.55,9,3.22V57H15V32.13Z"/><polygon fill="#ff5023" points="35 43 35 56 33 54 32 55 31 54 29 56 29 43 35 43"/><rect width="6" height="3" x="29" y="40" fill="#e0e0e2"/><polygon fill="#2d2d30" points="35 56 35 57 32 61 29 57 29 56 31 54 32 55 33 54 35 56"/><polygon fill="#00665a" points="46 51 43 57 40 51 46 51"/><path d="M61.27,10.04l-29-8a.991.991,0,0,0-.54,0l-29,8A1,1,0,0,0,2,11v2a1,1,0,0,0,.8.98l9.2,1.9V29a4.744,4.744,0,0,0,2,3.64V57a1,1,0,0,0,1,1h9a1,1,0,0,0,1-1V36.51c.98.14,1.99.25,3,.33V57a.984.984,0,0,0,.2.6l3,4a1,1,0,0,0,1.6,0l3-4A.984.984,0,0,0,36,57V36.84c1.01-.08,2.02-.19,3-.33V51a1,1,0,0,0,.11.45l3,6a1,1,0,0,0,1.78,0l3-6A1,1,0,0,0,47,51V34.41c3.03-1.32,5-3.14,5-5.41V15.88l4-.82v5.12A3.01,3.01,0,0,0,54,23v4a1,1,0,0,0,1,1h4a1,1,0,0,0,1-1V23a3.01,3.01,0,0,0-2-2.82V14.64l3.2-.66A1,1,0,0,0,62,13V11A1,1,0,0,0,61.27,10.04ZM23,56H16V52h4V50H16V45h2V43H16V38h4V36H16V33.93a26.539,26.539,0,0,0,7,2.25Zm11,.67-2,2.66-2-2.66v-.26l1-1,.29.3a1.008,1.008,0,0,0,1.42,0l.29-.3,1,1Zm0-3.08-.29-.3a1.008,1.008,0,0,0-1.42,0l-.29.3-.29-.3a1.008,1.008,0,0,0-1.42,0l-.29.3V44h4ZM34,42H30V41h4Zm0-3H30V36.96c.67.03,1.33.04,2,.04s1.33-.01,2-.04Zm9,15.76L41.62,52h2.76ZM45,50H41V36.18a31.117,31.117,0,0,0,4-1.02Zm5-21c0,2.84-7.39,6-18,6s-18-3.16-18-6V16.3l17.8,3.68a1.01,1.01,0,0,0,.4,0L50,16.3Zm8-3H56V23a1,1,0,0,1,2,0Zm2-13.81-2,.41V12H56v1.01L32,17.98,4,12.19v-.43L32,4.04l28,7.72Z"/><rect width="2" height="11" x="42" y="37"/></g></svg>