<svg xmlns="http://www.w3.org/2000/svg" enable-background="new 0 0 67 67" viewBox="0 0 67 67"><circle cx="5.57" cy="9.715" r="1.359" fill="#F6968A"/><circle cx="10.929" cy="9.715" r="1.359" fill="#3EBDA7"/><circle cx="16.288" cy="9.715" r="1.359" fill="#48A0D9"/><polygon fill="#F6968A" points="25.94 48.151 5.436 48.151 15.688 35.403"/><polygon fill="#3EBDA7" points="31.863 48.151 14.963 48.151 23.413 38.742"/><rect width="20.766" height="7.455" x="4.211" y="24.353" fill="#BDD7F0"/><rect width="13.164" height="7.455" x="29.45" y="24.353" fill="#BDD7F0"/><rect width="13.71" height="33.47" x="49.372" y="24.497" fill="#48A0D9"/><rect width="19.691" height="1" x="5.481" y="56.06" fill="#BDD7F0"/><rect width="27.403" height="1" x="16.481" y="53.509" fill="#BDD7F0"/><rect width="26.5" height="1" x="5.481" y="50.958" fill="#BDD7F0"/><rect width="4.73" height="1" x="34.296" y="50.958" fill="#BDD7F0"/><rect width="2.963" height="1" x="40.921" y="50.958" fill="#BDD7F0"/><rect width="2.874" height="1" x="11.942" y="53.509" fill="#BDD7F0"/><rect width="4.996" height="1" x="5.481" y="53.509" fill="#BDD7F0"/><rect width="16.75" height="1" x="27.134" y="56.06" fill="#BDD7F0"/><circle cx="39.818" cy="38.338" r="1.562" fill="#BDD7F0"/><circle cx="34.372" cy="38.338" r="1.562" fill="#BDD7F0"/><rect width="7.77" height="1" x="51.416" y="27.8" fill="#FFF"/><rect width="7.77" height="1" x="51.416" y="32.54" fill="#FFF"/><rect width="7.77" height="1" x="51.416" y="37.281" fill="#FFF"/><rect width="7.77" height="1" x="51.416" y="42.022" fill="#FFF"/><rect width="7.77" height="1" x="51.416" y="46.763" fill="#FFF"/><rect width="7.77" height="1" x="51.416" y="51.503" fill="#FFF"/><path fill="#223059" d="M66,5.96857H1.00635v0.00439H1v55.05859h64.99365V13.46222H66V5.96857z M2.00635,6.97296h62.9873v5.48926
			H32.90137l-3.35596-2.73047h-8.51563l-2.85938,2.73047H2.00635V6.97296z M64.99365,60.03156H2V13.46222h16.5708l2.85938-2.73047
			h7.75977l3.35596,2.73047h32.44775V60.03156z"/><path fill="#223059" d="M26.74707 22.5882H4.98145v8.45557h21.76563V22.5882zM25.74707 30.04376H5.98145V23.5882h19.76563V30.04376zM4.98145 48.82892h39.40283v-15.3584H4.98145V48.82892zM5.98145 34.47052h37.40283v13.3584h-6.40735l-6.44836-6.37866-6.44836 6.37866H5.98145V34.47052zM30.22021 31.04376h14.16406V22.5882H30.22021V31.04376zM31.22021 23.5882h12.16406v6.45557H31.22021V23.5882zM62.02197 22.5882h-14.7124v34.47168h14.7124V22.5882zM61.02197 56.05988h-12.7124V23.5882h12.7124V56.05988z"/><path fill="#223059" d="M40.50488 39.96711c1.08203 0 1.96191-.87988 1.96191-1.96191s-.87988-1.9624-1.96191-1.9624-1.9624.88037-1.9624 1.9624S39.42285 39.96711 40.50488 39.96711zM40.50488 36.84259c.64063 0 1.16211.52148 1.16211 1.1626 0 .64063-.52148 1.16211-1.16211 1.16211-.64111 0-1.1626-.52148-1.1626-1.16211C39.34229 37.36408 39.86377 36.84259 40.50488 36.84259zM35.05908 39.96711c1.08203 0 1.9624-.87988 1.9624-1.96191s-.88037-1.9624-1.9624-1.9624-1.9624.88037-1.9624 1.9624S33.97705 39.96711 35.05908 39.96711zM35.05908 36.84259c.64111 0 1.1626.52148 1.1626 1.1626 0 .64063-.52148 1.16211-1.1626 1.16211s-1.1626-.52148-1.1626-1.16211C33.89648 37.36408 34.41797 36.84259 35.05908 36.84259z"/><rect width="3.078" height="1" x="55.781" y="27.8" fill="#223059"/><rect width="3.078" height="1" x="53.211" y="32.54" fill="#223059"/><rect width="3.078" height="1" x="54.396" y="37.281" fill="#223059"/><rect width="3.078" height="1" x="54.887" y="42.022" fill="#223059"/><rect width="3.078" height="1" x="52.223" y="46.763" fill="#223059"/><rect width="3.078" height="1" x="53.762" y="51.503" fill="#223059"/><rect width="14.418" height=".8" x="7.345" y="25.801" fill="#FFF"/><rect width="14.418" height=".8" x="7.345" y="27.9" fill="#FFF"/><rect width="8.629" height=".8" x="32.631" y="25.801" fill="#FFF"/><rect width="8.629" height=".8" x="32.631" y="27.9" fill="#FFF"/><polygon fill="#BDD7F0" points="9.165 16.365 9.165 19.686 6.87 18.02"/><polygon fill="#BDD7F0" points="10.941 16.365 10.941 19.686 13.236 18.02"/><rect width="40.455" height="1" x="19.682" y="17.525" fill="#BDD7F0"/></svg>