<svg xmlns="http://www.w3.org/2000/svg" xmlns:xlink="http://www.w3.org/1999/xlink" id="Layer_1" x="0" y="0" version="1.1" viewBox="0 0 24 24" style="enable-background:new 0 0 24 24" xml:space="preserve"><style type="text/css">.st0{fill:#3873a3}.st1{fill:#ffde56}</style><path d="M9.6,11.7h4.3c0,0,2.4,0,2.4-2.3v-4c0,0,0.4-2.4-4.4-2.4C7.4,3,7.6,5,7.6,5l0,2.1H12v0.6H5.9	c0,0-2.9-0.3-2.9,4.3s2.6,4.5,2.6,4.5h1.5v-2.1C7.1,14.2,7,11.7,9.6,11.7z M9.5,6C9.1,6,8.7,5.6,8.7,5.2c0-0.4,0.4-0.8,0.8-0.8	s0.8,0.4,0.8,0.8C10.3,5.6,10,6,9.5,6z" class="st0"/><path d="M18.5,7.5h-1.5v2.1c0,0,0.1,2.6-2.5,2.6h-4.3c0,0-2.4,0-2.4,2.3v4c0,0-0.4,2.4,4.4,2.4c4.6,0,4.3-2,4.3-2l0-2.1	H12v-0.6h6.1c0,0,2.9,0.3,2.9-4.3S18.5,7.5,18.5,7.5z M14.5,18c0.4,0,0.8,0.4,0.8,0.8s-0.4,0.8-0.8,0.8s-0.8-0.4-0.8-0.8	S14,18,14.5,18z" class="st1"/></svg>