<svg xmlns="http://www.w3.org/2000/svg" xmlns:xlink="http://www.w3.org/1999/xlink" id="Layer_1" x="0" y="0" version="1.1" viewBox="0 0 24 24" style="enable-background:new 0 0 24 24" xml:space="preserve"><style type="text/css">.st0{fill:#2396ed}</style><path d="M20.2,9.8c-0.3,0-0.6,0-0.8,0.1c-0.1-0.9-0.7-1.7-1.4-2.1l-0.3-0.2l-0.2,0.3C17.2,8.2,17,8.6,16.9,9	c-0.2,0.8-0.1,1.6,0.3,2.2c-0.5,0.2-0.9,0.3-1.4,0.4H2.6c-0.3,0-0.6,0.3-0.6,0.6c0,1.2,0.2,2.3,0.6,3.4c0.4,1.1,1.1,2,2,2.6	c1.4,0.7,2.9,1,4.4,1c0.8,0,1.6,0,2.4-0.2c1.1-0.2,2.2-0.6,3.2-1.1c0.8-0.5,1.6-1.1,2.2-1.9c0.9-1.1,1.6-2.3,2.1-3.7h0.2	c0.8,0,1.6-0.3,2.2-0.8c0.3-0.2,0.5-0.5,0.6-0.9l0.1-0.2l-0.2-0.2C21.3,9.9,20.7,9.8,20.2,9.8z" class="st0"/><path d="M5.6,9.4H3.8c-0.1,0-0.2,0.1-0.2,0.1v1.6c0,0.1,0.1,0.2,0.2,0.1h1.8c0.1,0,0.2-0.1,0.2-0.1V9.5	C5.8,9.4,5.7,9.3,5.6,9.4z M8.1,9.4H6.3c-0.1,0-0.2,0.1-0.2,0.1v1.6c0,0.1,0.1,0.2,0.2,0.1h1.8c0.1,0,0.1-0.1,0.1-0.1V9.5	C8.2,9.4,8.1,9.4,8.1,9.4z M10.5,9.4H8.8c-0.1,0-0.1,0.1-0.1,0.1v1.6c0,0.1,0.1,0.1,0.1,0.1h1.8c0.1,0,0.1-0.1,0.1-0.1V9.5	C10.7,9.4,10.6,9.4,10.5,9.4z M11.2,9.4c-0.1,0-0.2,0-0.2,0.1c0,0,0,0,0,0v1.6c0,0.1,0.1,0.1,0.1,0.1H13c0.1,0,0.1-0.1,0.1-0.1V9.5	c0-0.1-0.1-0.1-0.1-0.1H11.2z M6.3,7.1H8c0.1,0,0.2,0.1,0.2,0.2v1.6C8.2,8.9,8.1,9,8,9c0,0,0,0,0,0H6.3C6.2,9,6.1,8.9,6.1,8.9V7.2	C6.1,7.2,6.2,7.1,6.3,7.1C6.3,7.1,6.3,7.1,6.3,7.1z M8.8,7.1h1.8c0.1,0,0.1,0.1,0.1,0.2v1.6c0,0.1-0.1,0.2-0.2,0.2H8.8	C8.7,9,8.6,8.9,8.6,8.8V7.2C8.6,7.2,8.7,7.1,8.8,7.1z M11.2,7.1H13c0.1,0,0.1,0.1,0.1,0.2v1.6c0,0.1,0,0.2-0.1,0.2c0,0,0,0,0,0h-1.8	C11.1,9,11,9,11,8.9c0,0,0,0,0-0.1V7.2C11,7.2,11.1,7.1,11.2,7.1C11.2,7.1,11.2,7.1,11.2,7.1z" class="st0"/><path d="M11.2,4.8H13c0.1,0,0.1,0.1,0.1,0.2v1.6c0,0.1-0.1,0.2-0.1,0.2h-1.8c-0.1,0-0.1-0.1-0.1-0.2V5	C11,4.9,11.1,4.8,11.2,4.8z" class="st0"/><path d="M13.6,9.4c-0.1,0-0.1,0.1-0.1,0.1v1.6c0,0.1,0.1,0.1,0.1,0.1h1.8c0.1,0,0.1-0.1,0.1-0.1V9.5	c0-0.1-0.1-0.1-0.1-0.1H13.6z" class="st0"/></svg>