<svg xmlns="http://www.w3.org/2000/svg" xmlns:xlink="http://www.w3.org/1999/xlink" id="Layer_1" x="0" y="0" version="1.1" viewBox="0 0 24 24" style="enable-background:new 0 0 24 24" xml:space="preserve"><style type="text/css">.st0{fill:#036ebb}.st1{fill:#df1900}.st2{fill:#f41b00}</style><path d="M9.4,17.5c-3.1,0.9,1.9,2.6,5.8,1c-0.4-0.1-0.7-0.3-1.1-0.5c-1.4,0.3-2.8,0.4-4.2,0.2C8.6,18,9.4,17.5,9.4,17.5	z" class="st0"/><path d="M14.7,15.8c-1.8,0.4-3.6,0.5-5.4,0.3c-1.3-0.1-0.4-0.8-0.4-0.8c-3.4,1.1,1.9,2.4,6.6,1	C15.2,16.2,14.9,16.1,14.7,15.8z" class="st0"/><path d="M16.5,6.1c0,0-6.9,1.7-3.6,5.5c0.5,0.6,0.4,1.6-0.2,2.1c0,0,0,0-0.1,0c0,0,2.5-1.3,1.3-2.9S12.1,8.6,16.5,6.1z" class="st1"/><path d="M18.1,19.1c0,0,0.6,0.5-0.6,0.8c-2.3,0.7-9.4,0.9-11.4,0c-0.7-0.3,0.6-0.7,1-0.8C7.3,19.1,7.5,19,7.8,19	c-0.8-0.6-5.2,1.1-2.2,1.6C13.6,22,20.2,20.1,18.1,19.1z" class="st0"/><path d="M15.4,14.3c0.3-0.2,0.6-0.3,0.9-0.5c0,0-1.5,0.3-3,0.4c-1.6,0.2-3.2,0.2-4.8,0.1C6.1,13.9,9.7,13,9.7,13	c-1.1,0-2.2,0.2-3.2,0.8C4.5,14.8,11.7,15.2,15.4,14.3z" class="st0"/><path d="M16.3,16.7C16.3,16.7,16.2,16.8,16.3,16.7c4.9-1.2,3.1-4.6,0.7-3.7c-0.1,0-0.2,0.1-0.3,0.2c0,0,0.1-0.1,0.4-0.1	C18.3,12.9,20,14.7,16.3,16.7z" class="st0"/><path d="M12,13c-0.7-1.7-3.3-3.1,0-5.7C16.1,4.1,14,2,14,2c0.8,3.3-3,4.3-4.3,6.4C8.7,9.8,10.1,11.3,12,13z" class="st2"/><path d="M16.4,21.3c-3,0.5-6.1,0.6-9.1,0.1c0,0,0.5,0.4,2.8,0.5c3.6,0.2,9.1-0.1,9.3-1.8C19.4,20.2,19.1,20.8,16.4,21.3	z" class="st0"/></svg>