<?xml version="1.0" encoding="utf-8"?>
<!-- Generator: Adobe Illustrator 26.0.2, SVG Export Plug-In . SVG Version: 6.00 Build 0)  -->
<svg version="1.1" id="Layer_1" xmlns="http://www.w3.org/2000/svg" xmlns:xlink="http://www.w3.org/1999/xlink" x="0px" y="0px"
	 viewBox="0 0 24 24" style="enable-background:new 0 0 24 24;" xml:space="preserve">
<style type="text/css">
	.st0{fill:#5C6474;}
</style>
<path class="st0" d="M20,6c0-2.2-3.7-4-8-4S4,3.8,4,6v2c0,2.2,3.7,4,8,4s8-1.8,8-4V6z M12,19c-4.3,0-8-1.8-8-4v3c0,2.2,3.7,4,8,4
	s8-1.8,8-4v-3C20,17.2,16.3,19,12,19z"/>
<path class="st0" d="M20,10c0,2.2-3.7,4-8,4s-8-1.8-8-4v3c0,2.2,3.7,4,8,4s8-1.8,8-4V10z"/>
</svg>
