<svg xmlns="http://www.w3.org/2000/svg" enable-background="new 0 0 1550 1550" viewBox="0 0 1550 1550"><path fill="#4b5378" d="M1431.59,340.5v766.88H942.15l-20,58.69h-294.3l-20-58.69H118.41V340.5c0-33.14,26.86-60,60-60h1193.18C1404.73,280.5,1431.59,307.36,1431.59,340.5z M1348.35,1024.13V363.74H201.65v660.39H1348.35z"/><path fill="#4b5378" d="M1519,1107.38v51.92c0,60.86-49.34,110.2-110.2,110.2H141.2c-60.86,0-110.2-49.34-110.2-110.2v-51.92h87.41h489.44l20,58.69h294.3l20-58.69h489.44H1519z"/><rect width="1146.7" height="660.39" x="201.65" y="363.74" fill="#d4f3f6"/><path d="M1408.8,1293.5H141.2c-74,0-134.2-60.2-134.2-134.2v-51.92c0-13.25,10.75-24,24-24h576.85c10.27,0,19.4,6.54,22.72,16.26l14.46,42.43h259.94l14.46-42.43c3.31-9.72,12.45-16.26,22.72-16.26H1519c13.25,0,24,10.75,24,24v51.92C1543,1233.3,1482.8,1293.5,1408.8,1293.5z M55,1131.38v27.92c0,47.53,38.67,86.2,86.2,86.2h1267.6c47.53,0,86.2-38.67,86.2-86.2v-27.92H959.33l-14.46,42.43c-3.31,9.72-12.45,16.26-22.72,16.26h-294.3c-10.27,0-19.4-6.54-22.72-16.26l-14.46-42.43H55z"/><path d="M1431.59,1131.38c-13.25,0-24-10.75-24-24V340.5c0-19.85-16.15-36-36-36H178.41c-19.85,0-36,16.15-36,36v766.88c0,13.25-10.75,24-24,24s-24-10.75-24-24V340.5c0-46.32,37.68-84,84-84h1193.18c46.32,0,84,37.68,84,84v766.88C1455.59,1120.63,1444.84,1131.38,1431.59,1131.38z"/><path d="M1348.35,1048.13H201.65c-13.25,0-24-10.75-24-24V363.74c0-13.25,10.75-24,24-24h1146.7c13.25,0,24,10.75,24,24v660.39C1372.35,1037.38,1361.6,1048.13,1348.35,1048.13z M225.65,1000.13h1098.7V387.74H225.65V1000.13z"/><path d="M647.81 848.95c-6.14 0-12.28-2.34-16.97-7.03L499.83 710.91c-9.37-9.37-9.37-24.57 0-33.94l131.02-131.02c9.37-9.37 24.57-9.37 33.94 0s9.37 24.57 0 33.94L550.74 693.94l114.05 114.05c9.37 9.37 9.37 24.57 0 33.94C660.1 846.61 653.96 848.95 647.81 848.95zM902.19 848.95c-6.14 0-12.28-2.34-16.97-7.03-9.37-9.37-9.37-24.57 0-33.94l114.05-114.05L885.22 579.88c-9.37-9.37-9.37-24.57 0-33.94s24.57-9.37 33.94 0l131.02 131.02c9.37 9.37 9.37 24.57 0 33.94L919.16 841.92C914.47 846.61 908.33 848.95 902.19 848.95zM727.3 896.01c-2.06 0-4.15-.27-6.23-.82-12.8-3.43-20.4-16.59-16.97-29.39l95.43-356.13c3.43-12.8 16.59-20.4 29.39-16.97 12.8 3.43 20.4 16.59 16.97 29.39l-95.43 356.13C747.6 888.93 737.9 896.01 727.3 896.01z"/></svg>