<svg xmlns="http://www.w3.org/2000/svg" enable-background="new 0 0 66 66" viewBox="0 0 66 66"><path fill="#D5D9DC" d="M40.1,9.2c-2.1-0.7-4.4-1.1-6.7-1.1c-11.7,0-21.2,9.5-21.2,21.2c0,11.6,9.3,21,20.8,21.2
			c0.1,0,0.3,0,0.4,0c0.5,0,1,0,1.5-0.1C45.5,49.7,54,41,54.5,30.3c0-0.3,0-0.6,0-0.9C54.5,20,48.5,12,40.1,9.2z"/><path fill="#55C5CA" d="M38 48.8c0-.2.3-.4.2-.6-.2 0-.4.2-.6.3-.5-.1-1.1.1-1.5.3-.2.1-.5.2-.6.4-.1.1-.1.2-.2.4-.1.3-.3.6-.4.8C36 50.4 37 50.2 38 50c0 0 0 0 0 0-.2-.2.1-.6.1-.9C38.1 49 38 48.9 38 48.8zM40.1 49.1c0-.1-.1-.1-.1-.2-.2-.2-.5-.1-.8-.2 0-.1 0-.2 0-.3-.1-.1-.4.1-.3.2-.2 0-.4.2-.6.4 0 0-.1.1-.1.1-.1.2.2.4.2.6 0 0 0 .1 0 .1.8-.2 1.7-.5 2.5-.8C40.6 49.2 40.3 49.3 40.1 49.1z"/><path fill="#2089B8" d="M45.6,15.3c-0.3,0.2-0.7,0.1-0.9-0.1c0.1,0,0.3,0,0.4-0.1c0-0.2-0.2-0.3-0.4-0.3c-0.2,0-0.4,0-0.5-0.2
				c-0.1-0.1-0.1-0.3-0.2-0.4c-0.1-0.1-0.2-0.1-0.3-0.1c-0.4,0-0.8-0.3-1.1-0.6c-0.1-0.1-0.1-0.2-0.2-0.2c-0.1-0.1-0.2-0.1-0.3-0.1
				c-0.4-0.1-0.8-0.3-1.2-0.6c-0.2-0.1-0.4-0.2-0.6-0.2c-0.2,0-0.4,0-0.6-0.1c0,0-0.1-0.1-0.1-0.1c-0.1,0-0.1,0-0.2,0.1
				c-0.4,0.2-0.8,0-1.2,0.1c-0.1,0-0.1,0-0.1,0.1c0,0,0,0.1-0.1,0.1c0,0-0.1,0-0.1,0c-0.2,0-0.3,0.1-0.5,0.2
				c-0.3,0.2-0.5,0.3-0.8,0.5c0-0.2,0.1-0.4,0.2-0.5c-0.4-0.1-0.8-0.1-1.2,0c-0.3,0-0.6,0.1-0.9,0.1c-0.1,0-0.2,0-0.3,0.1
				c-0.1,0-0.2,0.1-0.3,0.2c-0.1,0-0.2,0-0.3,0.1c-0.1,0-0.2,0.1-0.2,0.2c0,0.1,0,0.2,0.1,0.2c0,0.1,0,0.2-0.1,0.2
				c-0.1,0-0.2-0.1-0.2-0.2c-0.1-0.2-0.4-0.2-0.6-0.2c-0.4,0-0.9,0.1-1.3,0.1c-0.1,0-0.2,0-0.3,0c-0.3,0-0.5,0.1-0.8,0.1
				c-0.3,0-0.6,0.1-0.9,0.2c0.1,0.3,0.2,0.6,0.5,0.9c0.1,0.1,0.2,0.3,0.1,0.4c-0.1,0.1-0.2,0-0.2,0c-0.1,0-0.1-0.1-0.2-0.2
				c-0.1,0-0.2-0.1-0.2-0.1c-0.2-0.1-0.3-0.5-0.6-0.3c0-0.1,0-0.2,0-0.3c-0.4,0.1-0.9,0.2-1.3,0.3c-0.1,0-0.3,0.1-0.4,0.2
				c-0.1,0.2,0.1,0.4,0.3,0.5c0.2,0,0.4,0,0.6-0.1c0.1,0.1,0,0.2-0.1,0.2c0,0.2,0.3,0.3,0.2,0.5c-0.1,0.1-0.3,0-0.4,0
				c-0.1,0-0.2,0.1-0.2,0.3c0,0.1,0.1,0.2,0.1,0.3c-0.3-0.2-0.6-0.3-0.9-0.6c-0.1-0.1-0.2-0.2-0.3-0.3c-0.1-0.1-0.3-0.1-0.4,0
				c0-0.1,0-0.2,0-0.3c-0.4,0-0.9-0.1-1.3-0.1c-0.1,0-0.3,0-0.3-0.1c0-0.1,0-0.2-0.1-0.3c-0.1-0.1-0.2-0.1-0.2-0.1
				c-0.2-0.1-0.1-0.4,0-0.6c0.1-0.1,0.2-0.2,0.1-0.2c0-0.1-0.1-0.1-0.2-0.1c-1-0.2-2,0.1-2.8,0.8c0-0.1-0.2-0.2-0.4-0.2
				c-0.2,0-0.3,0-0.5,0.1c-0.2,0.1-0.3,0.2-0.3,0.4c0,0.1,0,0.2,0,0.3c-0.1,0.2-0.4,0.2-0.6,0.2c-0.3,0-0.6,0.1-0.8,0.2
				c-0.7,0.3-1.5,0.8-1.7,1.6c0,0.1,0,0.2-0.1,0.2c0,0-0.1,0.1-0.2,0.1c-0.5,0.1-0.9,0.3-1.4,0.4c0,0.1-0.1,0.1-0.1,0.2
				c0.2,0,0.3,0,0.5,0c0.6,0,1.4,0,1.8-0.5c0.1-0.1,0.2-0.3,0.3-0.3c0,0,0.1,0,0.1,0.1c0.1,0.1,0.2,0.2,0.3,0.2
				c0.1,0,0.3-0.1,0.4-0.1c0.3,0.3,0.6,0.8,0.4,1.2c-0.1,0.2-0.3,0.3-0.5,0.4c0.3,0.5,0,1.2-0.2,1.8c-0.1,0.3-0.4,0.6-0.4,0.9
				c0,0.1,0,0.2,0,0.3c0,0.3-0.4,0.5-0.5,0.7c-0.1,0.3,0,0.6,0.1,0.9c0.1,0.3,0.3,0.6,0.2,0.9c0,0,0,0.1-0.1,0.1c0,0-0.1,0-0.1,0
				c-0.1,0-0.3,0-0.3,0.1c0,0,0,0.1,0,0.2c0,0.1-0.2,0.2-0.2,0.4c-0.1,0.1-0.1,0.3-0.2,0.4c-0.1,0.1-0.2,0.1-0.2,0.1
				c-0.1,0.1-0.1,0.1-0.2,0.2c-0.2,0.4-0.4,0.7-0.6,1.1c-0.1,0.1-0.1,0.3-0.2,0.4c-0.2,0.4-0.2,0.8-0.5,1.1
				c-0.2,0.3-0.4,0.6-0.6,0.9c-0.1,0.1-0.2,0.2-0.2,0.3c-0.1,0.2-0.1,0.3-0.1,0.5c0,0.6-0.1,1.1,0.1,1.7c0.1,0.4,0.4,0.7,0.6,1.1
				c0.2,0.4,0.3,0.8,0.3,1.2c0,0.5-0.1,1.1,0.1,1.5c0.1,0.1,0.2,0.3,0.2,0.4c0,0.2,0,0.4-0.2,0.4c0,0-0.1,0-0.1,0
				c-0.1,0.1-0.1,0.3,0,0.4c0.1,0.1,0.3,0.2,0.4,0.3c0.2,0.2,0.1,0.6,0.1,0.9c0,0.3,0.3,0.6,0.5,0.9c0.2,0.3,0.3,0.6,0.4,0.9
				c0.3-0.3,0.2-0.9-0.1-1.1c-0.1,0-0.1-0.1-0.2-0.2c0-0.1,0-0.2,0-0.2c0.1-0.4,0.1-0.9-0.1-1.2c0-0.1-0.1-0.1-0.1-0.2
				c-0.1-0.2,0-0.4-0.1-0.6c0-0.5-0.5-0.9-0.5-1.4c0-0.4,0.2-0.7,0.5-1c0,0.4,0.3,0.6,0.4,1c0,0.1,0.1,0.3,0.1,0.4
				c0.2,1.2,0.5,2.4,1.1,3.4c0.2,0.4,0.5,0.7,0.6,1.1c0.1,0.6,0.2,1.1,0,1.7c0,0.1-0.1,0.2-0.1,0.3c0,0.1,0.1,0.2,0.2,0.3
				c0.4,0.5,0.8,0.9,1.3,1.2c0.5,0.4,1,0.7,1.4,1.1c0.4,0.3,0.9,0.6,1.4,0.7c0.2,0.1,0.3,0.1,0.5,0.1c0.2,0,0.4-0.2,0.7-0.2
				c0.2,0,0.4,0.1,0.6,0.2c0.4,0.2,0.7,0.5,1,0.8c0.1,0.1,0.1,0.2,0.2,0.2c0.1,0.2,0.3,0.3,0.5,0.3c0.6,0.3,1.4,0.6,2,0.3
				c-0.1,0.7,0.7,1.1,0.9,1.8c0,0.2,0,0.4,0.2,0.5c0.1,0.1,0.4,0.1,0.4-0.1c0.2,0.2,0.4,0.3,0.6,0.5c0.1,0,0.1,0.1,0.1,0.1
				c0,0.1,0,0.2,0.1,0.2c0.8,0.1,1.5,0.2,2.3,0.2c0.1,0,0.1,0,0.2,0c0.1-0.1,0.1-0.1,0.2-0.1c0.1,0,0.2,0,0.3,0.1c0.3,0,0.6,0,0.9,0
				c-0.1-0.1-0.2-0.2-0.3-0.3c-0.4-0.3-1-0.3-1.5-0.2c-0.1,0-0.3,0.1-0.5,0.1c-0.3,0-0.7-0.2-0.8-0.5c-0.1-0.1-0.1-0.3-0.2-0.4
				c-0.1-0.1-0.2-0.1-0.3-0.1c-0.3-0.2-0.3-0.5-0.3-0.8c0-0.4,0-0.7,0.1-1c0-0.1,0.1-0.3,0.1-0.4c0-0.5-0.4-0.9-0.9-1
				c-0.7-0.2-1.5-0.2-2.2-0.2c0.1-0.4,0.2-0.8,0.3-1.2c0.1-0.2,0.1-0.4,0.2-0.6c0.1-0.2,0.2-0.5,0.3-0.7c0.2-0.2,0.5-0.5,0.4-0.7
				c-0.1-0.3-0.4-0.3-0.7-0.3c-0.4,0-0.9,0-1.3,0.2c-0.3,0.2-0.5,0.5-0.6,0.8c-0.1,0.2-0.1,0.4-0.2,0.5c-0.1,0.1-0.3,0.2-0.5,0.1
				c-0.2-0.2-0.4-0.2-0.6-0.2c-0.2,0.1-0.4,0.2-0.6,0.1c-0.2,0-0.3-0.1-0.4-0.3c-0.5-0.5-0.9-1.2-1-2c0-0.1,0-0.1,0-0.2
				c0-0.1,0.1-0.2,0.1-0.2c0.1-0.3-0.1-0.7-0.1-1.1c0-0.4,0.4-0.8,0.5-1.2c0-0.2,0-0.3,0-0.5c0-0.1,0.1-0.2,0.2-0.3
				c0.2-0.2,0.5-0.4,0.9-0.5c0.1,0,0.2,0,0.3-0.1c0.1-0.1,0.1-0.2,0.2-0.3c0.2-0.2,0.5-0.1,0.7-0.1c0.1,0,0.2-0.1,0.3-0.1
				c0.5-0.1,0.8,0.6,1.3,0.6c0.3,0,0.5-0.1,0.7-0.3c0,0,0.1-0.1,0.1-0.1c0-0.1-0.1-0.1-0.1-0.2c0,0,0.1-0.1,0.1-0.1
				c0.6-0.2,1.2-0.1,1.7,0.1c0.2,0.1,0.5,0.2,0.7,0.2c0.1,0,0.2-0.1,0.4-0.1c0.2,0,0.4,0.1,0.5,0.3c0.1,0.2,0.1,0.4,0.1,0.6
				c0,0.4,0.1,0.9,0.3,1.3c0.1,0.3,0.2,0.6,0.5,0.7c0.3,0.1,0.6,0,0.7-0.3c0-0.2-0.2-0.4-0.2-0.6c0-0.1,0.1-0.3,0.1-0.4
				c0.1-0.4-0.2-0.8-0.4-1.3c-0.2-0.5-0.1-1.1,0.2-1.5c0.3-0.3,0.6-0.5,1-0.8c0.7-0.4,1.5-0.9,2.1-1.4c-0.2-0.5-0.1-1,0.1-1.5
				c0-0.1,0.1-0.2,0.1-0.3c0-0.2,0-0.3,0.1-0.4c0.1-0.1,0.2-0.1,0.3-0.2c0.1-0.1,0.1-0.3,0.1-0.4c0.1-0.3,0.4-0.4,0.7-0.4
				c0.3,0,0.6,0,0.9-0.1c0.1,0,0.1-0.1,0.1-0.1c0-0.1,0-0.2-0.1-0.3c-0.1-0.1-0.2-0.1-0.2-0.2c-0.1-0.2,0-0.5,0.2-0.6
				c0.2-0.1,0.5-0.1,0.7-0.3c0.1-0.1,0.3-0.2,0.4-0.3c0.3-0.3,0.7-0.5,1-0.6c0.1-0.1,0.2-0.1,0.4-0.1c-0.1,0.2-0.3,0.2-0.5,0.4
				c-0.2,0.1-0.4,0.3-0.3,0.5c0,0.2,0.4,0.3,0.6,0.3c0.2-0.1,0.4-0.3,0.6-0.5c0.1-0.2,0.3-0.3,0.5-0.4c0.2-0.1,0.4-0.1,0.6-0.2
				c0.2-0.1,0.4-0.3,0.3-0.5c-0.4,0.2-0.8,0.3-1.3,0.3c-0.4-0.3-0.8-0.6-1.1-1c0.1-0.1,0.2-0.3,0.4-0.3c0.1-0.2-0.1-0.3-0.2-0.4
				c-0.2,0-0.3,0-0.5,0.1c-0.4,0.1-0.8,0.2-1.2,0.4c-0.1-0.1,0-0.3,0.2-0.3c0.1,0,0.3,0,0.4-0.1c0.1-0.1,0.1-0.2,0.1-0.2
				c0.1-0.3,0.4-0.4,0.6-0.5c0.3-0.1,0.6,0,0.8,0c0.8,0,1.6-0.3,2.3-0.7c-0.1,0.6-0.2,1.2-0.3,1.7c0,0.1,0,0.3,0.1,0.4
				c0.1,0.1,0.4,0,0.5,0c0.3-0.1,0.6-0.2,1-0.1c-0.1,0.1,0,0.3,0.2,0.3c0.2,0,0.3-0.1,0.5-0.1c0.2,0,0.5,0,0.6-0.1
				c0.1-0.2-0.1-0.4-0.3-0.5c-0.2-0.1-0.5-0.2-0.5-0.4c0-0.1,0-0.2,0-0.2c0-0.1-0.2-0.1-0.3-0.1c-0.1,0-0.2,0.1-0.4,0.1
				c-0.3,0-0.5-0.3-0.5-0.5c0-0.3,0.2-0.5,0.1-0.7c-0.1-0.1-0.1-0.1-0.2-0.1c-0.1-0.1-0.1-0.4-0.2-0.5c-0.2-0.2-0.5,0-0.7-0.2
				c-0.1-0.1-0.1-0.2-0.2-0.3C42.2,23,42.1,23,42,23c-0.4,0-0.7-0.2-0.9-0.5c-0.3,0-0.5-0.2-0.6-0.5c0-0.1,0-0.2-0.1-0.3
				c0-0.1-0.1-0.1-0.1-0.2c-0.3-0.3-0.6-0.6-0.9-0.9c-0.1-0.1-0.2-0.2-0.3-0.1c-0.1,0-0.1,0.1-0.1,0.2c0,0.3-0.2,0.6-0.5,0.6
				c-0.2,0-0.4-0.1-0.6-0.2c0.1-0.4-0.3-0.8-0.7-1c-0.5-0.3-1.1-0.4-1.7-0.4c-0.1,0-0.2,0-0.3,0.1c-0.1,0.1-0.1,0.3,0,0.4
				c0,0.3,0,0.5-0.2,0.8c-0.1,0.1-0.2,0.2-0.2,0.4c0,0.1,0.1,0.3,0.2,0.3c0.1,0.2,0.3,0.4,0.3,0.6c0,0.2,0,0.5-0.2,0.6
				c-0.3,0.2-0.7,0.2-0.8,0.5c0,0.1,0,0.2,0.1,0.3c0.1,0.2,0.2,0.5,0.1,0.7c0,0.2-0.2,0.5-0.4,0.5c-0.4,0.1-0.7-0.3-0.8-0.7
				c-0.1-0.4,0-0.8-0.1-1.2c-1.1,0-2-1.2-3.2-1.1c0.2-0.3,0.1-0.7-0.1-0.9c-0.1,0-0.2,0-0.2,0c0-0.5,0.4-1,0.9-1.3
				c0.2-0.1,0.3-0.1,0.5-0.2c0.2-0.1,0.3-0.2,0.5-0.3c0.5-0.3,0.9-0.6,1.4-0.8c0.2,0.2-0.1,0.6,0.1,0.8c0.3,0.3,0.8-0.4,1.1-0.2
				c0.1,0.1,0.2,0.2,0.3,0.2c0.2,0.1,0.4-0.3,0.3-0.5c-0.1-0.2-0.4-0.2-0.6-0.3c-0.1-0.2,0-0.4,0.2-0.6c0.2-0.2,0.4-0.3,0.4-0.5
				c0-0.1,0-0.2,0-0.3c0-0.3,0.4-0.6,0.7-0.5c0.3,0.1,0.6,0.3,0.8,0.6c0.1,0.2,0.3,0.4,0.2,0.5C36.2,18,36,18.1,36,18.2
				c0,0.1,0.1,0.2,0,0.3c0,0.1-0.2,0.1-0.3,0.1c-0.1,0-0.2,0.2-0.1,0.2c0.4-0.2,0.9,0.4,1.3,0.3c0,0.2,0.2,0.4,0.4,0.5
				c0.4,0.1,0.8,0.2,1.2,0.3c-0.2-0.2-0.5-0.4-0.7-0.6c0.3,0,0.6,0,0.9,0.2c0.1,0.1,0.2,0.1,0.3,0.1c0.2-0.1,0.1-0.3,0-0.5
				c-0.3-0.4-0.7-0.7-1.2-0.9c0.3-0.2,0.8,0,1.1,0.3c-0.1-0.3,0.2-0.6,0.5-0.7c-0.9-0.2-1.7-0.6-2.4-1.2c0-0.3-0.2-0.4-0.5-0.5
				c-0.5-0.2-1-0.4-1.5-0.7c-0.1-0.3,0.1-0.6,0.3-0.7c0.2-0.2,0.5-0.2,0.8-0.3c0.3-0.1,0.6-0.1,0.8,0.1c0.1,0.1,0.1,0.2,0.2,0.2
				c0.2,0.1,0.4,0,0.7,0c0.2,0,0.5,0.1,0.7,0.3c0.6,0.3,1.1,0.7,1.7,1c0,0.1,0.1,0.2,0.2,0.2c0.1,0,0.2,0,0.3,0
				c0.3,0,0.6,0.4,0.5,0.7c0,0.2-0.1,0.3-0.1,0.5c0,0.1,0.1,0.3,0.2,0.4c1,1.2,2.4,2.1,4,2.5c0.1,0,0.1,0,0.2,0
				c0.1-0.1-0.1-0.3-0.2-0.4c-0.1-0.1,0-0.2,0-0.4c0-0.2-0.1-0.5-0.3-0.6c-0.1-0.2-0.3-0.4-0.4-0.6c-0.1-0.2,0-0.5,0.3-0.6
				c0.1,0,0.2,0,0.3,0c0.2-0.1,0.2-0.3,0.1-0.5c0-0.2-0.1-0.3-0.1-0.5c0-0.2,0.3-0.3,0.4-0.2C45.7,15.9,45.7,15.6,45.6,15.3z"/><path fill="#2089B8" d="M54.5,29.3c0,0.3,0,0.6,0,0.9c0,0,0-0.1,0-0.1c-0.1-0.3-0.1-0.5-0.2-0.8l0.1,0.1c0-0.4-0.2-0.7-0.4-1.1
			c-0.3,0.1-0.3,0.5-0.5,0.8c-0.2,0.2-0.6,0.3-0.7,0.6c0,0.1-0.1,0.1-0.1,0.2c-0.1,0.1-0.3,0-0.4-0.1c-0.1-0.1-0.1-0.3-0.1-0.4
			c0-0.2-0.1-0.3-0.3-0.3c-0.1,0-0.3,0.1-0.4,0c-0.1,0-0.1-0.1-0.1-0.2c-0.1-0.3-0.2-0.7-0.4-0.9c-0.2-0.3-0.5-0.5-0.6-0.8
			c0-0.2,0-0.3,0-0.5c0-0.7-0.2-1.3-0.6-1.9c-0.1-0.1-0.2-0.2-0.2-0.3c0-0.1,0-0.2,0-0.3c0-0.6,0-1.2,0.1-1.8
			c0.1-0.3,0.2-0.6,0.1-0.9c0-0.4-0.2-0.8-0.3-1.2c-0.1-0.4-0.2-0.9-0.5-1.1c-0.1-0.1-0.3-0.2-0.4-0.3c0-0.1,0-0.2-0.1-0.2
			c-0.1-0.2-0.3-0.3-0.5-0.3c-0.3-0.5-0.4-1-0.7-1.5c0.2,0.1,0.4-0.1,0.5-0.3c0-0.2-0.1-0.4-0.2-0.6c-0.1-0.1-0.2-0.2-0.3-0.2
			c-0.1,0-0.2,0-0.3,0c-0.1,0-0.2-0.2-0.3-0.3c-0.3-0.5-0.6-1-0.9-1.4c0.2,0.4,0.3,0.8,0.3,1.2c-0.3-0.3-0.6-0.7-0.9-1
			c-0.1,0.3,0,0.6,0.2,0.8c-0.2,0.1-0.4,0-0.6-0.2c-0.1-0.2-0.2-0.4-0.3-0.6c-0.3-0.5-1.2-0.7-1.2-1.3c0.7,0.3,1.3,0.6,2,1
			c0.2-0.2,0-0.5-0.2-0.7c-0.2-0.2-0.5-0.3-0.6-0.5c-0.1-0.1-0.1-0.2-0.2-0.3c-0.1,0-0.2,0-0.3,0.1c-0.2,0-0.3,0-0.4-0.1
			c-0.5-0.2-1-0.4-1.4-0.8c-0.2-0.2-0.4-0.4-0.6-0.6c-0.4-0.3-0.8-0.4-1.2-0.3c-0.1-0.3-0.2-0.6-0.2-0.9c0-0.1,0-0.2,0-0.3
			C48.5,12,54.5,20,54.5,29.3z"/><path fill="#3C4D56" d="M33.3,8.1v42.4c0.5,0,1,0,1.5-0.1c11-0.8,19.7-9.9,19.7-21.2C54.5,17.6,45,8.1,33.3,8.1z" opacity=".15"/><path fill="none" d="M32.9,50.4C32.9,50.4,32.9,50.4,32.9,50.4L32.9,50.4C32.9,50.4,32.9,50.4,32.9,50.4z"/><path fill="#475D6B" d="M27.1,18.8H1.8c-0.5,0-0.8,0.4-0.8,0.8v10.6C1,30.6,1.4,31,1.8,31h25.2c0.5,0,0.8-0.4,0.8-0.8V19.6
		C27.9,19.1,27.5,18.8,27.1,18.8z"/><path fill="#3C4D56" d="M1 30.2C1 30.6 1.4 31 1.8 31h12.6v-6.1H1V30.2zM27.1 18.8c.5 0 .8.4.8.8v5.3H14.5v-6.1H27.1z"/><path fill="#475D6B" d="M27.1,5.7H1.8C1.4,5.7,1,6.1,1,6.5v10.6c0,0.5,0.4,0.8,0.8,0.8h25.2c0.5,0,0.8-0.4,0.8-0.8V6.5
		C27.9,6.1,27.5,5.7,27.1,5.7z"/><path fill="#3C4D56" d="M1.8 5.7C1.4 5.7 1 6.1 1 6.5v5.3h13.5V5.7H1.8zM27.9 17.1c0 .5-.4.8-.8.8H14.5v-6.1h13.5V17.1z"/><path fill="#D5D9DC" d="M25.8,58.8l1.8,1.1c0.4,0.3,0.9,0.4,1.4,0.4h32.5c0.5,0,1-0.1,1.4-0.4l1.8-1.1L25.8,58.8z"/><path fill="#B6BBBF" d="M45.4,58.8v1.5h16.1c0.5,0,1-0.1,1.4-0.4l1.8-1.1L45.4,58.8z"/><path fill="#475D6B" d="M61.6,32.4H29.2c-0.5,0-0.9,0.4-0.9,0.9v23.4h34.2V33.4C62.5,32.8,62.1,32.4,61.6,32.4z"/><path fill="#3C4D56" d="M61.6,32.4H45.2v24.3h17.3V33.4C62.5,32.8,62.1,32.4,61.6,32.4z"/><rect width="28.4" height="18.8" x="31.2" y="35.2" fill="#E9674A"/><rect width="14.1" height="18.8" x="31.2" y="35.2" fill="#DA5339"/><path fill="#E7E7E9" d="M64.3,56.7H26.2c-0.4,0-0.7,0.3-0.7,0.7v0.8c0,0.4,0.3,0.7,0.7,0.7h38.1c0.4,0,0.7-0.3,0.7-0.7v-0.8
			C65,57,64.7,56.7,64.3,56.7z"/><path fill="#B6BBBF" d="M26.2,56.7c-0.4,0-0.7,0.3-0.7,0.7v0.8c0,0.4,0.3,0.7,0.7,0.7h19.1v-2.2H26.2z"/><g><circle cx="21.8" cy="11.5" r="2.7" fill="#E7E7E9"/><circle cx="21.8" cy="11.5" r="1.7" fill="#E9674A"/><path fill="#D5D9DC" d="M20.1,11.5c0-1,0.8-1.7,1.7-1.7v-1c-1.5,0-2.7,1.2-2.7,2.7c0,1.5,1.2,2.7,2.7,2.7v-1
				C20.9,13.2,20.1,12.5,20.1,11.5z"/><path fill="#DA5339" d="M21.8,13.2c1,0,1.7-0.8,1.7-1.7c0-1-0.8-1.7-1.7-1.7h0L21.8,13.2L21.8,13.2z"/></g><g><circle cx="21.8" cy="24.9" r="2.7" fill="#E7E7E9"/><circle cx="21.8" cy="24.9" r="1.7" fill="#2089B8"/><path fill="#D5D9DC" d="M20.1,24.9c0-1,0.8-1.7,1.7-1.7v-1c-1.5,0-2.7,1.2-2.7,2.7c0,1.5,1.2,2.7,2.7,2.7v-1
				C20.9,26.6,20.1,25.8,20.1,24.9z"/><path fill="#1776AD" d="M21.8,26.6c1,0,1.7-0.8,1.7-1.7c0-1-0.8-1.7-1.7-1.7h0L21.8,26.6L21.8,26.6z"/></g><g><rect width="1.8" height="1.8" x="2.8" y="8.2" fill="#D5D9DC"/><rect width="1.8" height="1.8" x="5.5" y="8.2" fill="#D5D9DC"/><rect width="1.8" height="1.8" x="8.1" y="8.2" fill="#D5D9DC"/><rect width="1.8" height="1.8" x="10.7" y="8.2" fill="#D5D9DC"/><rect width="1.8" height="1.8" x="13.3" y="8.2" fill="#D5D9DC"/><rect width="1.8" height="1.8" x="2.8" y="10.9" fill="#D5D9DC"/><rect width="1.8" height="1.8" x="5.5" y="10.9" fill="#D5D9DC"/><rect width="1.8" height="1.8" x="8.1" y="10.9" fill="#D5D9DC"/><rect width="1.8" height="1.8" x="10.7" y="10.9" fill="#D5D9DC"/><rect width="1.8" height="1.8" x="13.3" y="10.9" fill="#D5D9DC"/><rect width="1.8" height="1.8" x="2.8" y="13.6" fill="#D5D9DC"/><rect width="1.8" height="1.8" x="5.5" y="13.6" fill="#D5D9DC"/><rect width="1.8" height="1.8" x="8.1" y="13.6" fill="#D5D9DC"/><rect width="1.8" height="1.8" x="10.7" y="13.6" fill="#D5D9DC"/><rect width="1.8" height="1.8" x="13.3" y="13.6" fill="#D5D9DC"/></g><g><rect width="1.8" height="1.8" x="2.8" y="21.3" fill="#D5D9DC"/><rect width="1.8" height="1.8" x="5.5" y="21.3" fill="#D5D9DC"/><rect width="1.8" height="1.8" x="8.1" y="21.3" fill="#D5D9DC"/><rect width="1.8" height="1.8" x="10.7" y="21.3" fill="#D5D9DC"/><rect width="1.8" height="1.8" x="13.3" y="21.3" fill="#D5D9DC"/><rect width="1.8" height="1.8" x="2.8" y="24" fill="#D5D9DC"/><rect width="1.8" height="1.8" x="5.5" y="24" fill="#D5D9DC"/><rect width="1.8" height="1.8" x="8.1" y="24" fill="#D5D9DC"/><rect width="1.8" height="1.8" x="10.7" y="24" fill="#D5D9DC"/><rect width="1.8" height="1.8" x="13.3" y="24" fill="#D5D9DC"/><rect width="1.8" height="1.8" x="2.8" y="26.6" fill="#D5D9DC"/><rect width="1.8" height="1.8" x="5.5" y="26.6" fill="#D5D9DC"/><rect width="1.8" height="1.8" x="8.1" y="26.6" fill="#D5D9DC"/><rect width="1.8" height="1.8" x="10.7" y="26.6" fill="#D5D9DC"/><rect width="1.8" height="1.8" x="13.3" y="26.6" fill="#D5D9DC"/></g></svg>