<svg xmlns="http://www.w3.org/2000/svg" enable-background="new 0 0 512 512" viewBox="0 0 512 512"><path fill="#dbdbdb" d="M507.411 480.274v13.169c0 7.582-6.385 13.967-13.967 13.967H283.535c-7.582 0-13.967-6.385-13.967-13.967v-13.169H507.411zM507.411 163.417v13.169c0 7.582-6.385 13.967-13.967 13.967H283.535c-7.582 0-13.967-6.385-13.967-13.967v-13.169H507.411zM242.432 163.417v13.169c0 7.582-6.385 13.967-13.967 13.967H18.556c-7.582 0-13.967-6.385-13.967-13.967v-13.169H242.432z"/><path fill="#47aacb" d="M496.636 335.015v145.26H279.944v-145.26c0-7.582 5.986-13.967 13.568-13.967h189.157C490.65 321.048 496.636 327.433 496.636 335.015zM496.636 18.556v145.26H279.944V18.556c0-7.981 6.385-13.967 13.967-13.967h189.157C490.65 4.589 496.636 10.575 496.636 18.556zM232.056 18.556v145.26H15.364V18.556c0-7.981 5.986-13.967 13.568-13.967h189.157C225.671 4.589 232.056 10.575 232.056 18.556zM232.056 335.015v145.26H15.364v-145.26c0-7.582 5.986-13.967 13.568-13.967h189.157C225.671 321.048 232.056 327.433 232.056 335.015z"/><path fill="#90cddf" d="M496.656 335.019v145.259H279.963v-16.96h123.67c42.022 0 76.062-34.04 76.062-76.062v-66.204h2.993C490.67 321.052 496.656 327.436 496.656 335.019zM496.656 18.56V163.82H279.963v-16.96h123.67c42.022 0 76.062-34.04 76.062-76.061V4.593h3.391C490.67 4.593 496.656 10.579 496.656 18.56zM232.076 18.56V163.82H15.383v-16.96h123.67c42.022 0 76.062-34.04 76.062-76.061V4.593h2.993C225.69 4.593 232.076 10.579 232.076 18.56zM232.076 335.019v145.259H15.383v-16.96h123.67c42.022 0 76.062-34.04 76.062-76.062v-66.204h2.993C225.69 321.052 232.076 327.436 232.076 335.019z"/><path fill="#dbdbdb" d="M242.432,480.274v13.169c0,7.582-6.385,13.967-13.967,13.967H18.556 c-7.582,0-13.967-6.385-13.967-13.967v-13.169H242.432z"/><path fill="#47aacb" d="M295.906,247.221v17.958c0,5.188-4.39,9.578-9.578,9.578h-60.658c-5.188,0-9.578-4.39-9.578-9.578 v-17.958c0-5.188,4.39-9.578,9.578-9.578h61.057C291.916,237.643,295.906,241.634,295.906,247.221z"/><path fill="#dbdbdb" d="M409.241 256c0 11.573-9.179 20.751-20.751 20.751-11.573 0-20.751-9.178-20.751-20.751 0-11.573 9.178-20.751 20.751-20.751C400.062 235.249 409.241 244.427 409.241 256zM144.262 256c0 11.573-9.178 20.751-20.751 20.751s-20.751-9.178-20.751-20.751c0-11.573 9.178-20.751 20.751-20.751C135.083 235.249 144.262 244.427 144.262 256z"/><path fill="#3a3d3f" d="M493.444,194.943c9.977,0,17.958-7.981,17.958-17.958v-13.169c0-2.394-1.596-3.991-3.991-3.991 h-6.784V18.556c0-9.977-7.981-17.958-17.559-17.958H293.911c-9.977,0-17.958,7.981-17.958,17.958v141.269h-6.784 c-2.394,0-3.991,1.596-3.991,3.991v13.169c0,9.977,7.981,17.958,17.958,17.958H384.1v36.714 c-10.376,1.596-18.756,9.977-20.352,20.352h-63.85v-4.789c0-7.582-5.986-13.568-13.568-13.568h-60.658 c-7.582,0-13.568,5.986-13.568,13.568v4.789h-63.85c-1.596-10.376-9.977-18.756-20.352-20.352v-36.714h100.963 c9.977,0,17.958-7.981,17.958-17.958v-13.169c0-2.394-1.596-3.991-3.991-3.991h-6.784V18.556 c0-9.977-7.981-17.958-17.958-17.958H28.932c-9.578,0-17.559,7.981-17.559,17.958v141.269H4.589 c-2.394,0-3.991,1.596-3.991,3.991v13.169c0,9.977,7.981,17.958,17.958,17.958H119.52v36.714 c-11.972,1.995-20.751,11.972-20.751,24.343s9.178,22.747,20.751,24.343v36.714H28.932c-9.977,0-17.559,7.981-17.559,17.958 v141.269H4.589c-2.394,0-3.991,1.596-3.991,3.991v13.169c0,9.977,7.981,17.958,17.958,17.958h209.908 c9.977,0,17.958-7.981,17.958-17.958v-13.169c0-2.394-1.596-3.991-3.991-3.991h-6.385V335.015 c0-9.977-7.981-17.958-17.559-17.958h-90.987v-36.714c10.376-1.596,18.756-9.977,20.352-20.352h63.85v4.789 c0,7.582,5.986,13.568,13.568,13.568h61.057c7.582,0,13.568-5.986,13.568-13.568v-4.789h63.85 c1.596,10.376,9.977,18.756,20.352,20.352v36.714h-90.189c-9.977,0-17.559,7.981-17.559,17.958v141.269h-6.784 c-2.394,0-3.991,1.596-3.991,3.991v13.169c0,9.977,7.981,17.958,17.958,17.958h209.908c9.977,0,17.958-7.981,17.958-17.958 v-13.169c0-2.394-1.596-3.991-3.991-3.991h-6.784V335.015c0-9.977-7.981-17.958-17.559-17.958H392.48v-36.714 c11.972-1.995,20.751-11.972,20.751-24.343s-9.178-22.747-20.751-24.343v-36.714L493.444,194.943z M283.935,18.556 c0-5.587,4.39-9.977,9.977-9.977h189.157c5.587,0,9.578,4.39,9.578,9.977v141.269H283.935V18.556z M19.355,18.556 c0-5.587,4.39-9.977,9.578-9.977h189.157c5.587,0,9.977,4.39,9.977,9.977v141.269H19.355V18.556z M8.58,176.985v-9.178h229.861 v9.178c0,5.587-4.39,9.977-9.977,9.977c-79.813,0-103.757,0-209.908,0C12.97,186.962,8.58,182.173,8.58,176.985z M238.441,493.444c0,5.587-4.39,9.977-9.977,9.977H18.556c-5.587,0-9.977-4.39-9.977-9.977v-9.178h229.861V493.444z M228.065,335.015v141.269H19.355V335.015c0-5.587,4.39-9.977,9.578-9.977c23.146,0,139.274,0,189.157,0 C223.676,325.038,228.065,329.428,228.065,335.015z M123.511,272.761c-9.178,0-16.761-7.582-16.761-16.761 s7.582-16.761,16.761-16.761s16.761,7.582,16.761,16.761C140.271,265.178,132.689,272.761,123.511,272.761z M291.916,264.779 c0,3.193-2.394,5.587-5.587,5.587h-60.658c-3.193,0-5.587-2.394-5.587-5.587v-17.958c0-3.193,2.394-5.587,5.587-5.587h61.057 c3.193,0,5.587,2.394,5.587,5.587v17.958H291.916z M503.42,493.444c0,5.587-4.39,9.977-9.977,9.977H283.535 c-5.587,0-9.977-4.39-9.977-9.977v-9.178H503.42V493.444z M492.645,335.015v141.269H283.935V335.015 c0-5.587,4.39-9.977,9.578-9.977c23.146,0,139.274,0,189.157,0C488.256,325.038,492.645,329.428,492.645,335.015z M405.25,256 c0,9.178-7.582,16.761-16.761,16.761c-9.178,0-16.761-7.582-16.761-16.761s7.582-16.761,16.761-16.761 C397.668,239.239,405.25,246.822,405.25,256z M273.559,176.985v-9.178H503.42v9.178c0,5.587-4.39,9.977-9.977,9.977 c-79.813,0-103.757,0-209.908,0C277.949,186.962,273.559,182.173,273.559,176.985z"/></svg>