<?xml version="1.0" encoding="utf-8"?>
<!-- Generator: Adobe Illustrator 26.0.2, SVG Export Plug-In . SVG Version: 6.00 Build 0)  -->
<svg version="1.1" id="Layer_1" xmlns="http://www.w3.org/2000/svg" xmlns:xlink="http://www.w3.org/1999/xlink" x="0px" y="0px"
	 viewBox="0 0 50 50" style="enable-background:new 0 0 50 50;" xml:space="preserve">
<style type="text/css">
	.st0{fill:#C7CDE8;}
	.st1{fill:#5735FF;}
	.st2{fill:#5A3FFF;}
</style>
<path class="st0" d="M26,38.7V39h-3.2l-0.7-2.5c-0.2-0.6-0.6-1.1-1.2-1.3c-1-0.4-1.9-0.9-2.7-1.5c-0.5-0.4-1.1-0.5-1.8-0.4L14,33.9
	l-2.2-3.9l1.8-1.8c0.4-0.5,0.7-1.1,0.6-1.7C14,26,14,25.5,14,25v-1h1c0.6,0,1,0.4,1,1c0,0.4,0,0.9,0.1,1.3c0.2,1.3-0.2,2.5-1.1,3.4
	l-0.7,0.7l0.7,1.2l1-0.3c1.2-0.3,2.5,0,3.5,0.7c0.7,0.5,1.4,0.9,2.2,1.3c1.2,0.5,2.1,1.5,2.4,2.7l0.3,1C25.2,37,26,37.8,26,38.7
	C26,38.7,26,38.7,26,38.7z"/>
<circle class="st1" cx="25" cy="25" r="8"/>
<path class="st2" d="M41,26c0.1,0,0.1,0,0.2,0c0.5,1.9,2.5,2.9,4.3,2.4c1.9-0.5,2.9-2.5,2.4-4.3c-0.5-1.9-2.5-2.9-4.3-2.4
	c-1.2,0.3-2.1,1.2-2.4,2.4c-0.1,0-0.1,0-0.2,0h-3c0-0.3-0.1-0.6-0.1-0.9l1.8-1.8c0.6-0.6,0.8-1.6,0.3-2.4L38.9,17h2.3
	c0.6,1.8,2.5,2.9,4.3,2.4c1.8-0.6,2.9-2.5,2.4-4.3c-0.6-1.8-2.5-2.9-4.3-2.4c-1.1,0.3-2,1.2-2.4,2.4h-3.5c-0.5-0.7-1.4-1.1-2.2-0.9
	l-2.5,0.7l0,0V8.9c1.8-0.6,2.9-2.5,2.4-4.3c-0.6-1.8-2.5-2.9-4.3-2.4c-1.8,0.6-2.9,2.5-2.4,4.3c0.3,1.1,1.2,2,2.4,2.4v4.6
	c-0.4-0.2-0.8-0.4-1.2-0.5l-0.7-2.5c-0.2-0.9-1-1.5-1.9-1.5h-4.5c-0.9,0-1.7,0.6-1.9,1.5L20.2,13c-0.8,0.3-1.5,0.7-2.2,1.1V8.9
	c1.8-0.6,2.9-2.5,2.4-4.3c-0.6-1.8-2.5-2.9-4.3-2.4c-1.8,0.6-2.9,2.5-2.4,4.3c0.3,1.1,1.2,2,2.4,2.4v5.7l-1.5-0.4
	c-0.8-0.2-1.7,0.1-2.2,0.9H8.9c-0.6-1.8-2.5-2.9-4.3-2.4c-1.8,0.6-2.9,2.5-2.4,4.3c0.6,1.8,2.5,2.9,4.3,2.4c1.1-0.3,2-1.2,2.4-2.4
	h2.3L10.1,19c-0.5,0.8-0.3,1.8,0.3,2.4l1.8,1.8c0,0.3-0.1,0.6-0.1,0.8H8.9c-0.6-1.8-2.5-2.9-4.3-2.4c-1.8,0.6-2.9,2.5-2.4,4.3
	c0.6,1.8,2.5,2.9,4.3,2.4c1.1-0.3,2-1.2,2.4-2.4h3.2c0,0.3,0.1,0.6,0.1,0.9l-1.8,1.8c-0.6,0.6-0.8,1.6-0.3,2.4l1.1,1.9H8.9
	c-0.6-1.8-2.5-2.9-4.3-2.4c-1.8,0.6-2.9,2.5-2.4,4.3c0.6,1.8,2.5,2.9,4.3,2.4c1.1-0.3,2-1.2,2.4-2.4h3.5c0.5,0.7,1.4,1.1,2.2,0.9
	l1.5-0.4v5.7c-1.8,0.6-2.9,2.5-2.4,4.3c0.6,1.8,2.5,2.9,4.3,2.4c1.8-0.6,2.9-2.5,2.4-4.3c-0.3-1.1-1.2-2-2.4-2.4V36
	c0.7,0.4,1.4,0.8,2.2,1.1l0.7,2.5c0.2,0.9,1,1.5,1.9,1.5h4.5c0.9,0,1.7-0.6,1.9-1.5l0.7-2.5c0.4-0.2,0.8-0.3,1.2-0.5v4.6
	c-1.8,0.6-2.9,2.5-2.4,4.3c0.6,1.8,2.5,2.9,4.3,2.4c1.8-0.6,2.9-2.5,2.4-4.3c-0.3-1.1-1.2-2-2.4-2.4v-5.9l0,0l2.5,0.7
	c0.8,0.2,1.7-0.1,2.2-0.9h3.5c0.6,1.8,2.5,2.9,4.3,2.4c1.8-0.6,2.9-2.5,2.4-4.3c-0.6-1.8-2.5-2.9-4.3-2.4c-1.1,0.3-2,1.2-2.4,2.4
	h-2.3l1.1-1.9c0.5-0.8,0.3-1.8-0.3-2.4l-1.8-1.8c0-0.3,0.1-0.6,0.1-0.8H41z M44.5,23.5c0.8,0,1.5,0.7,1.5,1.5s-0.7,1.5-1.5,1.5
	S43,25.8,43,25C43,24.2,43.7,23.5,44.5,23.5z M30.5,5.5C30.5,4.7,31.2,4,32,4s1.5,0.7,1.5,1.5S32.8,7,32,7C31.2,7,30.5,6.3,30.5,5.5
	z M33.5,44.5c0,0.8-0.7,1.5-1.5,1.5s-1.5-0.7-1.5-1.5S31.2,43,32,43C32.8,43,33.5,43.7,33.5,44.5z M44.5,14.5c0.8,0,1.5,0.7,1.5,1.5
	c0,0.8-0.7,1.5-1.5,1.5S43,16.8,43,16C43,15.2,43.7,14.5,44.5,14.5z M15.5,5.5C15.5,4.7,16.2,4,17,4s1.5,0.7,1.5,1.5S17.8,7,17,7
	C16.2,7,15.5,6.3,15.5,5.5z M5.5,17.5C4.7,17.5,4,16.8,4,16c0-0.8,0.7-1.5,1.5-1.5S7,15.2,7,16C7,16.8,6.3,17.5,5.5,17.5z M5.5,26.5
	C4.7,26.5,4,25.8,4,25s0.7-1.5,1.5-1.5S7,24.2,7,25C7,25.8,6.3,26.5,5.5,26.5z M5.5,35.5C4.7,35.5,4,34.8,4,34s0.7-1.5,1.5-1.5
	S7,33.2,7,34C7,34.8,6.3,35.5,5.5,35.5z M18.5,44.5c0,0.8-0.7,1.5-1.5,1.5s-1.5-0.7-1.5-1.5S16.2,43,17,43
	C17.8,43,18.5,43.7,18.5,44.5z M44.5,32.5c0.8,0,1.5,0.7,1.5,1.5s-0.7,1.5-1.5,1.5S43,34.8,43,34C43,33.2,43.7,32.5,44.5,32.5z
	 M38.2,30.1L36,33.9l-2.5-0.7c-1.7-0.4-2.9,1.5-4.5,1.9c-0.6,0.2-1,0.7-1.2,1.3L27.2,39h-4.5c-0.5-1.4-0.4-3.3-1.9-3.8
	c-1.6-0.4-2.8-2.3-4.5-1.9L14,33.9l-2.2-3.9l1.8-1.8c0.9-0.9,0.4-2.2,0.4-3.3c0-1.1,0.5-2.4-0.4-3.3l-1.8-1.8l2.2-3.9l2.5,0.7
	c1.7,0.4,2.9-1.5,4.5-1.9c0.6-0.2,1-0.7,1.2-1.3l0.7-2.5h4.5c0.5,1.4,0.4,3.3,1.9,3.8c1.6,0.4,2.8,2.3,4.5,1.9l2.5-0.7l2.2,3.9
	l-1.8,1.8C35.5,22.6,36,23.9,36,25c0,1.1-0.5,2.4,0.4,3.3L38.2,30.1z"/>
</svg>
