<svg xmlns="http://www.w3.org/2000/svg" xmlns:xlink="http://www.w3.org/1999/xlink" id="Layer_1" x="0" y="0" version="1.1" viewBox="0 0 800 600" style="enable-background:new 0 0 800 600" xml:space="preserve"><style type="text/css">.st0{fill:url(#SVGID_1_)}.st1{fill:url(#XMLID_2_)}.st2{fill:#b3efff}.st3{filter:url(#Adobe_OpacityMaskFilter)}.st5{mask:url(#moon_1_);fill:url(#XMLID_3_)}.st6{fill:url(#moon_2_)}.st7{fill:url(#SVGID_2_)}.st8{opacity:.6;fill:url(#SVGID_3_)}.st9{fill:#125cae}.st10,.st11{fill:#fff}.st11{opacity:.4}.st12{fill:url(#SVGID_4_)}.st13{fill:url(#SVGID_5_)}.st14{fill:url(#SVGID_6_)}.st15{fill:url(#SVGID_7_)}.st16{fill:url(#SVGID_8_)}.st17{fill:url(#SVGID_9_)}.st18{fill:url(#SVGID_10_)}.st19{fill:url(#SVGID_11_)}.st20{fill:url(#SVGID_12_)}.st21{fill:url(#SVGID_13_)}.st22{fill:url(#SVGID_14_)}.st23{fill:url(#SVGID_15_)}.st24{fill:url(#SVGID_16_)}.st25{fill:url(#SVGID_17_)}.st26{opacity:.5;fill:url(#SVGID_18_)}.st27{fill:url(#SVGID_19_)}.st28{fill:url(#SVGID_20_)}.st29{fill:url(#SVGID_21_)}.st30{fill:url(#SVGID_22_)}.st31{fill:url(#SVGID_23_)}.st32{fill:url(#SVGID_24_)}.st33{fill:url(#SVGID_25_)}.st34{opacity:.6;fill:url(#SVGID_26_)}.st35{opacity:.3;fill:url(#SVGID_27_)}</style><linearGradient id="SVGID_1_" x1="232.849" x2="581.688" y1="31.091" y2="531.6" gradientUnits="userSpaceOnUse"><stop offset="0" style="stop-color:#270036"/><stop offset=".594" style="stop-color:#4f008b"/><stop offset="1" style="stop-color:#4c24b1"/></linearGradient><path d="M739.37,357.24c-160.78,139.86-45.15,248.44-427.9,219.96C132.28,563.85,43.53,427.65,22.98,303.2	C-2.5,148.91,94.99,39.38,363.38,39.38c121.07,0,230.3-36.53,306.56,12.65C776.24,120.61,818.47,288.44,739.37,357.24z" class="st0"/><radialGradient id="XMLID_2_" cx="462.041" cy="278.36" r="206.646" gradientUnits="userSpaceOnUse"><stop offset="0" style="stop-color:#3e82bf"/><stop offset="1" style="stop-color:#3e82bf;stop-opacity:0"/></radialGradient><rect id="XMLID_126_" width="413.29" height="413.29" x="255.39" y="71.71" class="st1"/><circle cx="692.01" cy="176.48" r="5.71" class="st2"/><g><circle cx="179.39" cy="135.38" r="5.71" class="st2"/><g><defs><filter id="Adobe_OpacityMaskFilter" width="100.17" height="100.16" x="534.23" y="47.5" filterUnits="userSpaceOnUse"><feFlood style="flood-color:white;flood-opacity:1" result="back"/><feBlend in="SourceGraphic" in2="back" mode="normal"/></filter></defs><mask id="moon_1_" width="100.17" height="100.16" x="534.23" y="47.5" maskUnits="userSpaceOnUse"><g id="XMLID_287_" class="st3"><defs><filter id="Adobe_OpacityMaskFilter_1_" width="100.17" height="100.16" x="534.23" y="47.5" filterUnits="userSpaceOnUse"><feFlood style="flood-color:white;flood-opacity:1" result="back"/><feBlend in="SourceGraphic" in2="back" mode="normal"/></filter></defs><linearGradient id="XMLID_3_" x1="184.085" x2="267.354" y1="325.452" y2="381.143" gradientTransform="matrix(-0.7089 0.7053 0.7053 0.7089 494.7178 -309.9533)" gradientUnits="userSpaceOnUse"><stop offset="0" style="stop-color:#4d4d4d"/><stop offset=".293" style="stop-color:#898989"/><stop offset=".628" style="stop-color:#c8c8c8"/><stop offset=".873" style="stop-color:#f0f0f0"/><stop offset="1" style="stop-color:#fff"/></linearGradient><path id="XMLID_288_" d="M548.8,132.9c19.52,19.61,51.22,19.69,70.83,0.18c19.61-19.51,19.69-51.22,0.18-70.83 c-19.51-19.61-51.22-19.69-70.83-0.18C529.38,81.58,529.3,113.29,548.8,132.9z" class="st5"/></g></mask><linearGradient id="moon_2_" x1="184.085" x2="267.354" y1="325.452" y2="381.143" gradientTransform="matrix(-0.7089 0.7053 0.7053 0.7089 494.7178 -309.9533)" gradientUnits="userSpaceOnUse"><stop offset="0" style="stop-color:#88cfda"/><stop offset=".008" style="stop-color:#89cfd9"/><stop offset=".478" style="stop-color:#c8d9bb"/><stop offset=".822" style="stop-color:#f0dfa7"/><stop offset="1" style="stop-color:#ffe1a0"/></linearGradient><path id="moon" d="M548.8,132.9c19.52,19.61,51.22,19.69,70.83,0.18c19.61-19.51,19.69-51.22,0.18-70.83 c-19.51-19.61-51.22-19.69-70.83-0.18C529.38,81.58,529.3,113.29,548.8,132.9z" class="st6"/><linearGradient id="SVGID_2_" x1="254.745" x2="279.862" y1="78.292" y2="78.292" gradientUnits="userSpaceOnUse"><stop offset="0" style="stop-color:#7633ff"/><stop offset=".159" style="stop-color:#7137ff"/><stop offset=".353" style="stop-color:#6243ff"/><stop offset=".568" style="stop-color:#4957ff"/><stop offset=".794" style="stop-color:#2672ff"/><stop offset="1" style="stop-color:#0090ff"/></linearGradient><circle cx="267.3" cy="78.29" r="12.56" class="st7"/><linearGradient id="SVGID_3_" x1="56.239" x2="75.077" y1="204.906" y2="204.906" gradientUnits="userSpaceOnUse"><stop offset="0" style="stop-color:#7633ff"/><stop offset=".159" style="stop-color:#7137ff"/><stop offset=".353" style="stop-color:#6243ff"/><stop offset=".568" style="stop-color:#4957ff"/><stop offset=".794" style="stop-color:#2672ff"/><stop offset="1" style="stop-color:#0090ff"/></linearGradient><circle cx="65.66" cy="204.91" r="9.42" class="st8"/><circle cx="430.56" cy="85.14" r="5.71" class="st9"/><polygon points="346.08 81.95 347.28 84.39 349.97 84.78 348.02 86.67 348.48 89.35 346.08 88.09 343.68 89.35 344.13 86.67 342.19 84.78 344.88 84.39" class="st10"/><polygon points="103.34 143.96 104.54 146.4 107.23 146.79 105.28 148.69 105.74 151.36 103.34 150.1 100.93 151.36 101.39 148.69 99.45 146.79 102.14 146.4" class="st11"/><polygon points="60.52 289.54 61.72 291.98 64.41 292.37 62.47 294.27 62.92 296.94 60.52 295.68 58.12 296.94 58.58 294.27 56.63 292.37 59.32 291.98" class="st10"/><polygon points="744.91 240.32 746.11 242.76 748.8 243.15 746.86 245.05 747.31 247.72 744.91 246.46 742.51 247.72 742.97 245.05 741.02 243.15 743.71 242.76" class="st10"/><polygon points="707.19 110.1 708.39 112.54 711.08 112.93 709.14 114.83 709.6 117.5 707.19 116.24 704.79 117.5 705.25 114.83 703.3 112.93 705.99 112.54" class="st10"/></g></g><g><g><g><linearGradient id="SVGID_4_" x1="688.819" x2="309.556" y1="188.508" y2="417.79" gradientUnits="userSpaceOnUse"><stop offset="0" style="stop-color:#1dacff"/><stop offset=".136" style="stop-color:#1ca9fb"/><stop offset=".274" style="stop-color:#1b9fef"/><stop offset=".414" style="stop-color:#188eda"/><stop offset=".555" style="stop-color:#1476bd"/><stop offset=".696" style="stop-color:#0f5898"/><stop offset=".839" style="stop-color:#08326b"/><stop offset=".979" style="stop-color:#010737"/><stop offset="1" style="stop-color:#00002e"/></linearGradient><polyline points="312.44 366.97 636.12 204.03 349.62 442.64" class="st12"/><linearGradient id="SVGID_5_" x1="648.746" x2="431.533" y1="191.323" y2="322.342" gradientUnits="userSpaceOnUse"><stop offset="0" style="stop-color:#1dacff"/><stop offset=".136" style="stop-color:#1ca9fb"/><stop offset=".274" style="stop-color:#1b9fef"/><stop offset=".414" style="stop-color:#188eda"/><stop offset=".555" style="stop-color:#1476bd"/><stop offset=".696" style="stop-color:#0f5898"/><stop offset=".839" style="stop-color:#08326b"/><stop offset=".979" style="stop-color:#010737"/><stop offset="1" style="stop-color:#00002e"/></linearGradient><polygon points="488.29 300.45 636.12 204.03 457.84 294.13" class="st13"/></g><g><g><linearGradient id="SVGID_6_" x1="10.566" x2="214.295" y1="511.44" y2="511.44" gradientUnits="userSpaceOnUse"><stop offset="0" style="stop-color:#88aeda"/><stop offset=".042" style="stop-color:#8eadd4"/><stop offset=".496" style="stop-color:#cba895"/><stop offset=".828" style="stop-color:#f1a56d"/><stop offset="1" style="stop-color:#ffa45e"/></linearGradient><path d="M183.4,539.92c-15.04,11.18-50.63,21.43-50.63,21.43s2.85-1.63,7.53-3.94c4.68-2.32,8.56-7.22,8.56-7.22 s-9.56,5.83-22.85,10.32c-13.28,4.49-31.05,7.75-31.05,7.75s3.61-1.75,9.94-5.89c6.34-4.14,17.23-11.35,17.23-11.35 s-27.18,14.89-68.73,17.75c-16.26,1.12-42.85,6.94-42.85,6.94s12.85-11.08,18.96-17.47c9.71-10.14,21-26.45,29.85-36.75 c13.18-15.34,40.24-42.32,40.24-42.32s0,0-5.44,2.44c-5.44,2.44-12.02,5.06-12.02,5.06s27.21-25.94,47.46-33.76 c22.82-8.81,53.27-4.79,53.27-4.79s2.68,13.02,12.64,29.88c10.3,17.42,18.77,24.52,18.77,24.52S206.44,522.8,183.4,539.92z" class="st14"/><linearGradient id="SVGID_7_" x1="57.134" x2="210.242" y1="503.452" y2="503.452" gradientUnits="userSpaceOnUse"><stop offset="0" style="stop-color:#88cfda"/><stop offset=".042" style="stop-color:#8ed0d4"/><stop offset=".496" style="stop-color:#cbd995"/><stop offset=".828" style="stop-color:#f1df6d"/><stop offset="1" style="stop-color:#ffe15e"/></linearGradient><path d="M187.03,524.86c-11.3,8.4-38.05,16.11-38.05,16.11s2.14-1.22,5.66-2.96c3.52-1.74,6.43-5.43,6.43-5.43 s-7.19,4.38-17.17,7.75c-9.98,3.37-23.33,5.83-23.33,5.83s2.71-1.32,7.47-4.43c4.76-3.11,12.95-8.53,12.95-8.53 s-20.43,11.19-51.66,13.34c-12.22,0.84-32.2,5.21-32.2,5.21s9.66-8.33,14.25-13.13c7.3-7.62,15.78-19.87,22.44-27.62 c9.91-11.53,30.24-31.8,30.24-31.8s0,0-4.09,1.83c-4.09,1.83-9.04,3.8-9.04,3.8s20.45-19.49,35.67-25.37 c17.15-6.62,40.04-3.6,40.04-3.6s2.01,9.79,9.5,22.45c7.74,13.1,14.11,18.42,14.11,18.42S204.34,511.99,187.03,524.86z" class="st15"/></g><g><linearGradient id="SVGID_8_" x1="365.527" x2="182.245" y1="453.813" y2="215.064" gradientUnits="userSpaceOnUse"><stop offset="0" style="stop-color:#a1baff"/><stop offset=".488" style="stop-color:#fff"/></linearGradient><path d="M204.15,418.8c1.72-2.59,49.7-54.01,108.02-84.18c58.32-30.17,84.75-32.75,84.75-32.75 s14.65,10.34,29.3,37.35c14.65,27.01,18.96,37.92,17.81,41.37c-1.15,3.45-58.03,64.93-120.38,90.5 c-62.34,25.57-69.52,27.01-69.52,27.01s-7.76-0.86-16.66-14.36s-29.59-47.12-31.89-54.59S204.15,418.8,204.15,418.8z" class="st16"/><linearGradient id="SVGID_9_" x1="477.637" x2="442.291" y1="354.36" y2="296.689" gradientUnits="userSpaceOnUse"><stop offset="0" style="stop-color:#3d00ba"/><stop offset=".745" style="stop-color:#ce00ff"/></linearGradient><path d="M491.15,298.71c-3.45-4.88-8.04-5.75-35.91-5.46c-27.87,0.29-56.88,9.48-56.88,9.48l0.33,0.54 c4.32,3.61,15.92,14.54,27.54,35.95c11.03,20.33,16.19,31.54,17.59,37.31l1.09,1.76c0,0,0,0,4.88-4.6s24.99-34.19,32.46-47.98 C489.72,311.93,494.6,303.59,491.15,298.71z" class="st17"/><linearGradient id="SVGID_10_" x1="224.546" x2="341.474" y1="513.606" y2="513.606" gradientUnits="userSpaceOnUse"><stop offset="0" style="stop-color:#3d00ba"/><stop offset=".745" style="stop-color:#ce00ff"/></linearGradient><path d="M256.44,497.23l-31.89,67.23c0,0,31.31-12.93,67.8-37.06c36.49-24.13,39.36-27.87,39.36-27.87l9.77-36.77 C341.47,462.76,282.87,489.76,256.44,497.23z" class="st18"/><linearGradient id="SVGID_11_" x1="251.133" x2="181.034" y1="402.142" y2="374.561" gradientUnits="userSpaceOnUse"><stop offset="0" style="stop-color:#3d00ba"/><stop offset=".745" style="stop-color:#ce00ff"/></linearGradient><path d="M275.68,357.03l-33.61-6.89c0,0-29.59,12.35-54.3,28.44c-24.71,16.09-48.84,34.19-48.84,34.19l67.51,3.45 C206.45,416.21,254.14,367.37,275.68,357.03z" class="st19"/><linearGradient id="SVGID_12_" x1="239.995" x2="191.732" y1="505.02" y2="431.764" gradientUnits="userSpaceOnUse"><stop offset="0" style="stop-color:#270036"/><stop offset=".438" style="stop-color:#4f008b"/><stop offset="1" style="stop-color:#4c24b1"/></linearGradient><path d="M237.47,483.73c-8.91-13.5-29.59-47.12-31.89-54.59c-0.63-2.03-1.01-3.71-1.25-5.1l-17.42,12.85 c0,0-1.15,12.64,14.36,36.2c15.51,23.56,23.56,31.6,27.29,31.31c3.73-0.29,19.82-8.62,19.82-8.62l-0.33-0.54 C245.14,493.21,241.42,489.71,237.47,483.73z" class="st20"/><linearGradient id="SVGID_13_" x1="183.308" x2="217.782" y1="444.933" y2="505.261" gradientUnits="userSpaceOnUse"><stop offset="0" style="stop-color:#7633ff"/><stop offset=".159" style="stop-color:#7137ff"/><stop offset=".353" style="stop-color:#6243ff"/><stop offset=".568" style="stop-color:#4957ff"/><stop offset=".794" style="stop-color:#2672ff"/><stop offset="1" style="stop-color:#0090ff"/></linearGradient><path d="M188.06,444.37l-5.17,3.73c0,0-0.57,8.04,11.2,27.58c11.78,19.54,18.96,26.72,22.12,27.01 s5.46-2.59,5.46-2.59S194.09,469.36,188.06,444.37z" class="st21"/><linearGradient id="SVGID_14_" x1="309.4" x2="159.441" y1="397.327" y2="477.477" gradientUnits="userSpaceOnUse"><stop offset="0" style="stop-color:#7633ff"/><stop offset=".132" style="stop-color:#6342ff"/><stop offset=".534" style="stop-color:#2e6cff"/><stop offset=".835" style="stop-color:#0d86ff"/><stop offset="1" style="stop-color:#0090ff"/></linearGradient><path d="M296.66,401.85l-25.86,8.91c0,0-40.09,22.24-53.15,30.17c-16.38,9.94-64.35,41.66-64.35,41.66l2.01,4.31 l118.94-70.96l26.14-10.06L296.66,401.85z" class="st22"/><linearGradient id="SVGID_15_" x1="155.308" x2="300.391" y1="446.38" y2="446.38" gradientUnits="userSpaceOnUse"><stop offset="0" style="stop-color:#3d00ba"/><stop offset=".745" style="stop-color:#ce00ff"/></linearGradient><path d="M155.31,486.89l65.5-30.17c0,0,25.16-14.38,33.33-19.54c11.81-7.45,46.25-31.31,46.25-31.31l-27.29,10.34 L155.31,486.89z" class="st23"/></g></g></g><g><path d="M414.45,158.51l6.32-2.59c0,0,1.59,0.73,3.16,4.31c2.01,4.6,2.3,7.76,2.3,7.76l-6.32,3.45 C419.9,171.44,416.74,162.82,414.45,158.51z"/><linearGradient id="SVGID_16_" x1="331.418" x2="421.176" y1="186.667" y2="186.667" gradientUnits="userSpaceOnUse"><stop offset="0" style="stop-color:#7633ff"/><stop offset=".159" style="stop-color:#7137ff"/><stop offset=".353" style="stop-color:#6243ff"/><stop offset=".568" style="stop-color:#4957ff"/><stop offset=".794" style="stop-color:#2672ff"/><stop offset="1" style="stop-color:#0090ff"/></linearGradient><path d="M356.41,215.4l64.64-39.07c0,0,0.77-6.13-1.53-11.49c-2.3-5.36-4.98-6.9-4.98-6.9l-83.12,37.64" class="st24"/><linearGradient id="SVGID_17_" x1="318.639" x2="363.456" y1="330.106" y2="184.162" gradientUnits="userSpaceOnUse"><stop offset="0" style="stop-color:#7633ff"/><stop offset=".111" style="stop-color:#6640ff"/><stop offset=".524" style="stop-color:#2f6bff"/><stop offset=".833" style="stop-color:#0d86ff"/><stop offset="1" style="stop-color:#0090ff"/></linearGradient><path d="M327.2,195.38c0,0-12.45,13.69-15.32,28.63s-2.59,39.93-3.45,48.27c-0.86,8.33-5.17,23.85-7.76,31.03 s-3.45,17.24-3.45,17.24s18.1,2.01,38.21-0.29s27.29-4.88,27.29-4.88s-1.15-23.56-3.26-31.22c-2.11-7.66-2.68-10.34-2.68-10.34 s0.77-2.87,2.68-8.04c1.92-5.17,11.49-23.56,9.96-30.64c-1.53-7.09-5.36-17.43-8.62-20.88s-4.6-4.02-4.6-4.02 s-7.47-10.73-12.64-15.71c-5.17-4.98-11.49-4.41-11.49-4.41L327.2,195.38z" class="st25"/><linearGradient id="SVGID_18_" x1="332.004" x2="359.477" y1="255.825" y2="255.825" gradientUnits="userSpaceOnUse"><stop offset="0" style="stop-color:#70b"/><stop offset="1" style="stop-color:#00008b"/><stop offset="1" style="stop-color:#000"/></linearGradient><path d="M332,241.08c0,0,3.35,9.77,8.91,16.28c5.55,6.51,16.95,13.22,16.95,13.22l1.62-4.8l-26.71-24.69" class="st26"/><linearGradient id="SVGID_19_" x1="327.269" x2="353.53" y1="198.294" y2="198.294" gradientUnits="userSpaceOnUse"><stop offset="0" style="stop-color:#7633ff"/><stop offset=".159" style="stop-color:#7137ff"/><stop offset=".353" style="stop-color:#6243ff"/><stop offset=".568" style="stop-color:#4957ff"/><stop offset=".794" style="stop-color:#2672ff"/><stop offset="1" style="stop-color:#0090ff"/></linearGradient><path d="M353.53,206.49c-2.64-3.58-6.74-8.88-9.95-11.97c-5.17-4.98-11.49-4.41-11.49-4.41l-4.82,5.2 c3.46,2.12,12,3.69,17.46,6.87C348.05,204.11,351.08,205.51,353.53,206.49z" class="st27"/><linearGradient id="SVGID_20_" x1="329.982" x2="355.838" y1="282.24" y2="282.24" gradientUnits="userSpaceOnUse"><stop offset="0" style="stop-color:#70b"/><stop offset="1" style="stop-color:#00008b"/><stop offset="1" style="stop-color:#000"/></linearGradient><path d="M330.56,281.86c0,0,6.13-0.19,14.94-2.3c8.81-2.11,10.34-3.45,10.34-3.45l-1.92,7.85 c0,0-4.41,3.06-10.73,3.64c-6.32,0.57-13.22,0.77-13.22,0.77L330.56,281.86z" class="st28"/><path d="M302.98,320.93c0,0,1.72,9.19,7.66,12.64s11.68,6.13,11.68,6.13l27.2,20.69l-43.09,17.43c0,0,5.55,13.02,10.15,19.54 c4.6,6.51,7.85,9.58,7.85,9s27.2-13.22,41.75-18.77c14.56-5.55,21.83-8.81,24.52-14.36c2.68-5.55-3.06-11.87-5.75-16.85 c-2.68-4.98-20.88-30.64-24.13-34.28s-5.94-4.79-5.94-4.79S325,323.04,302.98,320.93z"/><linearGradient id="SVGID_21_" x1="281.142" x2="313.319" y1="405.107" y2="405.107" gradientUnits="userSpaceOnUse"><stop offset="0" style="stop-color:#270036"/><stop offset=".594" style="stop-color:#4f008b"/><stop offset="1" style="stop-color:#4c24b1"/></linearGradient><path d="M306.42,377.81l-11.68-0.19l-13.6,6.13l5.75,13.41l2.68-1.72c0,0,1.34,12.83,5.17,21.45 c3.83,8.62,12.26,15.9,14.17,15.71c1.92-0.19,3.45-3.26,3.45-3.26s-6.7-11.3-5.36-17.62c1.34-6.32,4.21-16.47,4.21-16.47l2.11-2.3 C313.32,392.94,306.81,381.07,306.42,377.81z" class="st29"/><path d="M306.42,377.81l-8.82-0.14c0.44,2.17,1.24,5.53,2.12,6.66c1.2,1.55,8.26,4.02,11.91,10.46l1.69-1.84 C313.32,392.94,306.81,381.07,306.42,377.81z" class="st10"/><path d="M308.91,432.59c0.52-0.05,1.01-0.32,1.45-0.67c-3.67-2.41-7.53-6.91-11.22-11.78c-5.36-7.09-5.75-21.64-6.51-24.71 c-0.64-2.55-4.59-11.33-5.9-14.21l-5.59,2.52l5.75,13.41l2.68-1.72c0,0,1.34,12.83,5.17,21.45 C298.57,425.5,307,432.78,308.91,432.59z"/><path d="M340.18,190.69c0,0-0.57-4.88-0.86-6.9c-0.29-2.01,0.86-12.35,6.46-16.52c5.6-4.17,15.37-4.6,21.26-1.72 c5.89,2.87,11.2,6.18,12.35,8.19c1.15,2.01,1.72,5.75,1.29,6.9s-1.15,1.15-1.15,1.15l-6.03-5.03c0,0-4.45,4.6-4.6,5.75 c-0.14,1.15-1.58,7.61-1.58,7.61s-2.73-0.14-2.73-0.57s-2.73-8.04-4.74-7.76c-2.01,0.29-4.69-0.29-5.89,4.31 c-0.34,1.32-1.01,4.6-1.01,4.6l-8.91,3.59L340.18,190.69z"/><linearGradient id="SVGID_22_" x1="344.059" x2="378.917" y1="194.497" y2="194.497" gradientUnits="userSpaceOnUse"><stop offset="0" style="stop-color:#a1baff"/><stop offset=".488" style="stop-color:#fff"/></linearGradient><path d="M373.51,176.76c0,0-4.45,4.6-4.6,5.75c-0.14,1.15-1.58,7.61-1.58,7.61s-2.73-0.14-2.73-0.57 s-2.73-8.04-4.74-7.76c-2.01,0.29-4.69-0.29-5.89,4.31c-0.34,1.32-1.01,4.6-1.01,4.6l-8.91,3.59l11.78,15.85l2.3-0.96 c0,0,9.38,3.16,10.25,3.06c0.86-0.1,1.82-4.12,1.82-4.5c0-0.38,1.63-0.77,2.3-0.96c0.67-0.19-0.19-1.63-0.19-1.63l1.63-0.29 l0.57-3.45c0,0,1.24,0.57,1.63,0.57c0.38,0,1.92-0.67,1.92-0.67l-1.53-10.92l1.72-1.63l0.67-7.28l-0.17-0.38L373.51,176.76z" class="st30"/><linearGradient id="SVGID_23_" x1="331.989" x2="422.49" y1="255.774" y2="255.774" gradientUnits="userSpaceOnUse"><stop offset="0" style="stop-color:#7633ff"/><stop offset=".159" style="stop-color:#7137ff"/><stop offset=".353" style="stop-color:#6243ff"/><stop offset=".568" style="stop-color:#4957ff"/><stop offset=".794" style="stop-color:#2672ff"/><stop offset="1" style="stop-color:#0090ff"/></linearGradient><path d="M332.09,240.1c0,0,2.49,9.19,24.9,24.32c22.41,15.13,37.35,24.13,42.52,27.01 c5.17,2.87,13.02,9.96,13.02,9.96s4.41-4.98,6.89-9.58c2.49-4.6,3.06-6.9,3.06-6.9s-27.58-18.96-35.82-25.47 c-8.24-6.51-19.34-19.73-20.49-22.41c-1.15-2.68-1.34-20.49-9.58-25.09c-8.24-4.6-17.43,0-21.45,9.77S332.09,240.1,332.09,240.1z" class="st31"/><path d="M415.16,297.71l6.9,2.87c0,0,2.73-2.44,4.17-6.61c1.44-4.17,2.01-6.03,2.01-6.03l-5.75-3.02 C422.49,284.92,417.75,295.55,415.16,297.71z"/><linearGradient id="SVGID_24_" x1="424.357" x2="459.12" y1="293.971" y2="293.971" gradientUnits="userSpaceOnUse"><stop offset="0" style="stop-color:#a1baff"/><stop offset=".488" style="stop-color:#fff"/></linearGradient><path d="M428.24,289.09c0,0,9.77-1.15,12.21-1.15c2.44,0,7.18,1.44,11.35,3.3s7.33,4.74,7.33,5.46 s-0.72,1.87-3.02,1.44s-11.64-2.44-13.22-2.3c-1.58,0.14-9.19,4.17-11.64,4.17s-6.9-1.72-6.9-1.72S428.24,291.24,428.24,289.09z" class="st32"/><linearGradient id="SVGID_25_" x1="420.766" x2="450.474" y1="154.005" y2="154.005" gradientUnits="userSpaceOnUse"><stop offset="0" style="stop-color:#a1baff"/><stop offset=".488" style="stop-color:#fff"/></linearGradient><path d="M420.77,155.93c0,0,4.6-2.2,7.09-3.54s8.04-4.21,12.26-5.94c4.21-1.72,9.77-4.79,10.34-3.26 s-10.92,8.24-10.92,8.24s3.83,4.6,3.83,5.36c0,0.77-4.02,7.47-4.02,7.47s-3.15,1.14-4.21,0.96c-1.06-0.18-3.64-2.3-3.64-2.3 l-5.75,1.72C425.75,164.64,422.68,157.55,420.77,155.93z" class="st33"/></g></g><g><circle cx="234.66" cy="122.44" r="1.98" class="st10"/><path d="M306.51,181.82c0,0.54-0.44,0.98-0.98,0.98c-0.54,0-0.98-0.44-0.98-0.98c0-0.54,0.44-0.98,0.98-0.98 C306.07,180.84,306.51,181.28,306.51,181.82z" class="st10"/><path d="M190.14,198.54c0,1.48-1.2,2.67-2.67,2.67c-1.48,0-2.67-1.2-2.67-2.67c0-1.48,1.2-2.67,2.67-2.67 C188.94,195.87,190.14,197.07,190.14,198.54z" class="st10"/><path d="M118.33,186.11c0,1.14-0.92,2.06-2.05,2.06c-1.14,0-2.06-0.92-2.06-2.06c0-1.14,0.92-2.06,2.06-2.06 C117.41,184.06,118.33,184.98,118.33,186.11z" class="st10"/><path d="M297.84,127.68c0,1.03-0.84,1.87-1.87,1.87c-1.03,0-1.87-0.84-1.87-1.87c0-1.03,0.84-1.87,1.87-1.87 C297.01,125.81,297.84,126.65,297.84,127.68z" class="st10"/></g><g><circle cx="653.98" cy="107.11" r="2.45" class="st10"/><path d="M742.98,180.67c0,0.67-0.54,1.21-1.21,1.21c-0.67,0-1.21-0.54-1.21-1.21c0-0.67,0.54-1.21,1.21-1.21 C742.44,179.46,742.98,180,742.98,180.67z" class="st10"/><path d="M598.82,201.38c0,1.83-1.48,3.31-3.31,3.31c-1.83,0-3.31-1.48-3.31-3.31c0-1.83,1.48-3.31,3.31-3.31 C597.34,198.07,598.82,199.55,598.82,201.38z" class="st10"/><path d="M509.87,185.98c0,1.41-1.14,2.55-2.55,2.55c-1.41,0-2.55-1.14-2.55-2.55c0-1.41,1.14-2.55,2.55-2.55 C508.73,183.44,509.87,184.58,509.87,185.98z" class="st10"/><path d="M732.25,113.6c0,1.28-1.04,2.32-2.32,2.32c-1.28,0-2.32-1.04-2.32-2.32c0-1.28,1.04-2.32,2.32-2.32 C731.21,111.28,732.25,112.32,732.25,113.6z" class="st10"/></g><g><circle cx="546.93" cy="401.86" r="2.45" class="st10"/><path d="M635.94,475.42c0,0.67-0.54,1.21-1.21,1.21c-0.67,0-1.21-0.54-1.21-1.21c0-0.67,0.54-1.21,1.21-1.21 C635.4,474.2,635.94,474.75,635.94,475.42z" class="st10"/><path d="M491.78,496.13c0,1.83-1.48,3.31-3.31,3.31c-1.83,0-3.31-1.48-3.31-3.31c0-1.83,1.48-3.31,3.31-3.31 C490.3,492.82,491.78,494.3,491.78,496.13z" class="st10"/><path d="M402.83,480.73c0,1.41-1.14,2.55-2.55,2.55c-1.41,0-2.55-1.14-2.55-2.55c0-1.41,1.14-2.55,2.55-2.55 C401.69,478.18,402.83,479.32,402.83,480.73z" class="st10"/><path d="M625.21,408.35c0,1.28-1.04,2.32-2.32,2.32c-1.28,0-2.32-1.04-2.32-2.32c0-1.28,1.04-2.32,2.32-2.32 C624.17,406.03,625.21,407.07,625.21,408.35z" class="st10"/></g><g><circle cx="446.93" cy="515.29" r="1.33" class="st10"/><path d="M495.32,555.29c0,0.36-0.29,0.66-0.66,0.66c-0.36,0-0.66-0.29-0.66-0.66s0.29-0.66,0.66-0.66 C495.03,554.63,495.32,554.92,495.32,555.29z" class="st10"/><path d="M416.94,566.55c0,1-0.81,1.8-1.8,1.8c-1,0-1.8-0.81-1.8-1.8c0-1,0.81-1.8,1.8-1.8 C416.13,564.75,416.94,565.55,416.94,566.55z" class="st10"/><path d="M368.57,558.17c0,0.76-0.62,1.38-1.38,1.38c-0.76,0-1.38-0.62-1.38-1.38c0-0.76,0.62-1.38,1.38-1.38 C367.95,556.79,368.57,557.41,368.57,558.17z" class="st10"/><path d="M489.49,518.82c0,0.7-0.56,1.26-1.26,1.26c-0.7,0-1.26-0.56-1.26-1.26c0-0.7,0.56-1.26,1.26-1.26 C488.92,517.56,489.49,518.12,489.49,518.82z" class="st10"/></g><g><circle cx="163.33" cy="296.44" r="1.33" class="st10"/><path d="M211.73,336.44c0,0.36-0.29,0.66-0.66,0.66c-0.36,0-0.66-0.29-0.66-0.66c0-0.36,0.29-0.66,0.66-0.66 C211.43,335.78,211.73,336.08,211.73,336.44z" class="st10"/><path d="M133.34,347.7c0,1-0.81,1.8-1.8,1.8c-1,0-1.8-0.81-1.8-1.8c0-1,0.81-1.8,1.8-1.8 C132.54,345.9,133.34,346.71,133.34,347.7z" class="st10"/><path d="M84.98,339.33c0,0.76-0.62,1.38-1.38,1.38c-0.76,0-1.38-0.62-1.38-1.38c0-0.76,0.62-1.38,1.38-1.38 C84.36,337.95,84.98,338.56,84.98,339.33z" class="st10"/><path d="M205.89,299.97c0,0.7-0.56,1.26-1.26,1.26c-0.7,0-1.26-0.56-1.26-1.26c0-0.7,0.56-1.26,1.26-1.26 C205.33,298.71,205.89,299.28,205.89,299.97z" class="st10"/></g><g><circle cx="666.86" cy="265.87" r="1.33" class="st10"/><path d="M715.26,305.87c0,0.36-0.29,0.66-0.66,0.66s-0.66-0.29-0.66-0.66c0-0.36,0.29-0.66,0.66-0.66 S715.26,305.5,715.26,305.87z" class="st10"/><path d="M636.87,317.13c0,1-0.81,1.8-1.8,1.8c-1,0-1.8-0.81-1.8-1.8c0-1,0.81-1.8,1.8-1.8 C636.07,315.33,636.87,316.14,636.87,317.13z" class="st10"/><path d="M588.51,308.76c0,0.76-0.62,1.38-1.38,1.38c-0.76,0-1.38-0.62-1.38-1.38c0-0.76,0.62-1.38,1.38-1.38 C587.89,307.37,588.51,307.99,588.51,308.76z" class="st10"/><path d="M709.42,269.4c0,0.7-0.56,1.26-1.26,1.26c-0.7,0-1.26-0.56-1.26-1.26c0-0.7,0.56-1.26,1.26-1.26 C708.86,268.14,709.42,268.71,709.42,269.4z" class="st10"/></g><g><circle cx="521.14" cy="177.68" r="1.33" class="st10"/><path d="M569.54,217.68c0,0.36-0.29,0.66-0.66,0.66s-0.66-0.29-0.66-0.66c0-0.36,0.29-0.66,0.66-0.66 S569.54,217.31,569.54,217.68z" class="st10"/><path d="M491.15,228.94c0,1-0.81,1.8-1.8,1.8c-1,0-1.8-0.81-1.8-1.8c0-1,0.81-1.8,1.8-1.8 C490.35,227.14,491.15,227.95,491.15,228.94z" class="st10"/><path d="M442.79,220.57c0,0.76-0.62,1.38-1.38,1.38c-0.76,0-1.38-0.62-1.38-1.38c0-0.76,0.62-1.38,1.38-1.38 C442.17,219.18,442.79,219.8,442.79,220.57z" class="st10"/><path d="M563.7,181.21c0,0.7-0.56,1.26-1.26,1.26c-0.7,0-1.26-0.56-1.26-1.26c0-0.7,0.56-1.26,1.26-1.26 C563.14,179.95,563.7,180.51,563.7,181.21z" class="st10"/></g><linearGradient id="SVGID_26_" x1="621.302" x2="751.304" y1="79.434" y2="79.434" gradientUnits="userSpaceOnUse"><stop offset="0" style="stop-color:#a1baff"/><stop offset=".089" style="stop-color:#acc2ff"/><stop offset=".499" style="stop-color:#d9e3ff"/><stop offset=".816" style="stop-color:#f5f7ff"/><stop offset="1" style="stop-color:#fff"/></linearGradient><path d="M641.84,74.86c3.83,0,7.41,1.05,10.48,2.88c0.73-10.68,9.62-19.11,20.48-19.11c2.65,0,5.18,0.51,7.5,1.42	c2.96-9.9,12.13-17.12,22.99-17.12c13.26,0,24,10.75,24,24c0,0.34-0.01,0.68-0.03,1.01c0.01,0,0.02,0,0.03,0c13.25,0,24,10.75,24,24	c0,13.26-10.75,24-24,24c-0.83,0-1.65-0.04-2.45-0.12h-80.77c-0.74,0.08-1.48,0.12-2.24,0.12c-11.34,0-20.54-9.2-20.54-20.54	C621.3,84.06,630.5,74.86,641.84,74.86z" class="st34"/><linearGradient id="SVGID_27_" x1="458.072" x2="551.49" y1="104.654" y2="104.654" gradientUnits="userSpaceOnUse"><stop offset="0" style="stop-color:#a1baff"/><stop offset=".089" style="stop-color:#acc2ff"/><stop offset=".499" style="stop-color:#d9e3ff"/><stop offset=".816" style="stop-color:#f5f7ff"/><stop offset="1" style="stop-color:#fff"/></linearGradient><path d="M539.73,102.05c-2.19,0-4.25,0.6-6,1.65c-0.42-6.12-5.51-10.95-11.73-10.95c-1.34,0-2.63,0.24-3.83,0.66	c-1.73-5.6-6.96-9.68-13.13-9.68c-0.46,0-0.92,0.03-1.37,0.07c-5.77,0.36-10.57,4.27-12.24,9.58c-1.21-0.42-2.5-0.66-3.85-0.66	c-6.22,0-11.31,4.83-11.73,10.95c-1.76-1.05-3.81-1.65-6-1.65c-6.5,0-11.76,5.27-11.76,11.76c0,6.5,5.27,11.76,11.76,11.76	c0.43,0,0.86-0.03,1.28-0.07h18.06c0.53,0.06,1.06,0.1,1.61,0.1c0.47,0,0.94-0.02,1.4-0.07h25.79c0.26,0.01,0.52,0.04,0.79,0.04	c0.27,0,0.53-0.03,0.79-0.04h18.88c0.42,0.05,0.85,0.07,1.28,0.07c6.5,0,11.76-5.27,11.76-11.76	C551.49,107.32,546.22,102.05,539.73,102.05z" class="st35"/></svg>