<svg xmlns="http://www.w3.org/2000/svg" xmlns:xlink="http://www.w3.org/1999/xlink" id="Layer_1" x="0" y="0" version="1.1" viewBox="0 0 24 24" style="enable-background:new 0 0 24 24" xml:space="preserve"><style type="text/css">.st0{fill:#ebd41b}</style><path d="M3,3h18v18H3V3z M19.5,16.7c-0.1-0.8-0.7-1.5-2.3-2.2c-0.6-0.3-1.2-0.4-1.3-0.9c-0.1-0.2-0.1-0.4,0-0.5	c0.1-0.5,0.7-0.6,1.1-0.5c0.3,0.1,0.6,0.3,0.7,0.7c0.8-0.5,0.8-0.5,1.3-0.8c-0.2-0.3-0.3-0.5-0.4-0.6c-0.5-0.5-1.1-0.8-2.1-0.8	L16,11.2c-0.5,0.1-1,0.4-1.3,0.8c-0.9,1-0.6,2.7,0.4,3.4c1,0.8,2.5,0.9,2.7,1.7c0.2,0.9-0.7,1.2-1.5,1.1c-0.6-0.1-0.9-0.4-1.3-1	l-1.4,0.8c0.2,0.4,0.3,0.5,0.6,0.8c1.3,1.3,4.6,1.2,5.2-0.8C19.5,17.8,19.6,17.4,19.5,16.7C19.5,16.7,19.5,16.7,19.5,16.7z M12.8,11.3h-1.7c0,1.5,0,2.9,0,4.4c0,0.9,0,1.8-0.1,2c-0.2,0.5-0.9,0.5-1.2,0.4c-0.3-0.1-0.4-0.3-0.6-0.6c0-0.1-0.1-0.1-0.1-0.1	l-1.4,0.8c0.2,0.5,0.6,0.9,1,1.1c0.6,0.4,1.5,0.5,2.4,0.3c0.6-0.2,1.1-0.5,1.4-1.1c0.4-0.7,0.3-1.6,0.3-2.5	C12.8,14.4,12.8,12.9,12.8,11.3C12.8,11.3,12.8,11.3,12.8,11.3z" class="st0"/></svg>