<svg id="SvgjsSvg1061" width="288" height="288" xmlns="http://www.w3.org/2000/svg" version="1.1" xmlns:xlink="http://www.w3.org/1999/xlink" xmlns:svgjs="http://svgjs.com/svgjs"><defs id="SvgjsDefs1062"></defs><g id="SvgjsG1063"><svg xmlns="http://www.w3.org/2000/svg" data-name="Layer 1" viewBox="0 0 512 512" width="288" height="288"><g data-name="&amp;lt;Group&amp;gt;" fill="#5d5d5a" class="color000 svgShape"><path fill="#ffa45c" d="M358.81,303.12v23.16c0,9.2-7.26,17.02-16.47,17.12a16.663,16.663,0,0,1-16.84-16.65V233.93a31.38,31.38,0,0,1,31.22-34.53h16.87l26.75,26.02,27.73-26.02h15.89a31.367,31.367,0,0,1,31.21,34.53v92.81a16.67,16.67,0,0,1-33.34,0V306.3l-.4,12.73-.17-.01H360.33l-.92.03-.5-15.93Z" class="colorfdc75b svgShape"></path><path fill="#ffcdab" d="M400.42 474.52a18.056 18.056 0 0 1-36.1.65l-4.91-156.12.92-.03h80.93l.17.01-4.91 156.14a18.056 18.056 0 0 1-36.1-.65zM429.48 143.9v12.08a30.2 30.2 0 0 1-60.39 0V143.9a30.2 30.2 0 1 1 60.39 0z" class="colored664c svgShape"></path><polygon fill="#ffa45c" points="295.88 111.52 216.12 111.52 216.12 43.16 216.12 19.42 343.35 19.42 343.35 133.12 313.21 111.52 295.88 111.52" class="colorfdc75b svgShape"></polygon><polygon fill="#ffcdab" points="295.88 111.52 295.88 135.26 198.79 135.26 168.65 156.86 168.65 43.16 215.97 43.16 216.12 43.16 216.12 111.52 295.88 111.52" class="colored664c svgShape"></polygon><path fill="#ffa45c" d="M153.16,306.3l-.4,12.73-.17-.01H72.66l-1.92.06-.5-15.96h-.1v23.16c0,9.2-7.27,17.02-16.47,17.12a16.663,16.663,0,0,1-16.84-16.65V233.93A31.367,31.367,0,0,1,68.04,199.4H84.91l26.75,26.02,27.73-26.02h15.9a31.367,31.367,0,0,1,31.21,34.53v92.81a16.67,16.67,0,0,1-33.34,0Z" class="colorfdc75b svgShape"></path><path fill="#ffcdab" d="M111.75 474.52a18.056 18.056 0 0 1-36.1.65L70.74 319.08l1.92-.06h79.93l.17.01-4.91 156.14a18.056 18.056 0 0 1-36.1-.65zM140.8 143.9v12.08a30.2 30.2 0 0 1-60.39 0V143.9a30.2 30.2 0 1 1 60.39 0z" class="colored664c svgShape"></path><path d="M110.61,193.17a37.232,37.232,0,0,0,37.19-37.19V143.9a37.2,37.2,0,0,0-74.39,0v12.08A37.237,37.237,0,0,0,110.61,193.17ZM87.41,143.9a23.2,23.2,0,1,1,46.39,0v12.08a23.2,23.2,0,0,1-46.39,0Z" fill="#5d5d5a" class="color000 svgShape"></path><path d="M155.29 192.4h-15.9a7 7 0 0 0-4.79 1.9L111.747 215.74 89.791 194.383A7 7 0 0 0 84.91 192.4H68.04a38.367 38.367 0 0 0-38.21 41.867v92.483A23.662 23.662 0 0 0 53.482 350.4h.264a23.057 23.057 0 0 0 10.887-2.87l4.021 127.886a25.036 25.036 0 0 0 43.088 16.46c.114.119.223.24.34.357a25.053 25.053 0 0 0 42.764-16.842l4.014-127.674A23.687 23.687 0 0 0 193.5 326.741V234.268A38.367 38.367 0 0 0 155.29 192.4zM129.8 485.58a11.062 11.062 0 0 1-11.05-11.06V348.11a7 7 0 0 0-14 0V474.52a11.055 11.055 0 0 1-18.734 7.958 10.956 10.956 0 0 1-3.37-7.529l-4.683-148.93h67.573l-4.682 148.9A11.023 11.023 0 0 1 129.8 485.58zm49.736-252.359a7 7 0 0 0-.036.709v92.81a9.676 9.676 0 0 1-9.67 9.66 9.678 9.678 0 0 1-9.67-9.66V306.4l.1-3.059a7.043 7.043 0 0 0-.1-1.4V264.62a7 7 0 0 0-14 0v41.557l-.184 5.842H77.523l-.287-9.119a6.959 6.959 0 0 0-.1-.92V264.62a7 7 0 0 0-14 0v61.66A9.931 9.931 0 0 1 53.594 336.4a9.663 9.663 0 0 1-9.765-9.65v-92.82a7 7 0 0 0-.036-.709A24.366 24.366 0 0 1 68.038 206.4H82.065l24.712 24.038a7 7 0 0 0 9.671.087l25.71-24.125h13.13a24.371 24.371 0 0 1 24.248 26.821zM399.28 193.17a37.237 37.237 0 0 0 37.2-37.19V143.9a37.2 37.2 0 0 0-74.391 0v12.08A37.233 37.233 0 0 0 399.28 193.17zM376.09 143.9a23.2 23.2 0 1 1 46.39 0v12.08a23.2 23.2 0 0 1-46.39 0z" fill="#5d5d5a" class="color000 svgShape"></path><path d="M443.96 192.4H428.07a7 7 0 0 0-4.79 1.9L400.427 215.74l-21.956-21.357a7 7 0 0 0-4.881-1.982H356.72A38.381 38.381 0 0 0 318.5 234.267v92.484A23.662 23.662 0 0 0 342.151 350.4h.264a23.057 23.057 0 0 0 10.887-2.87l4.022 127.9a25.036 25.036 0 0 0 43.088 16.446c.114.119.224.241.341.358a25.053 25.053 0 0 0 42.763-16.842l4.015-127.679a23.68 23.68 0 0 0 34.638-20.972V234.269A38.369 38.369 0 0 0 443.96 192.4zM418.47 485.58a11.062 11.062 0 0 1-11.051-11.06V348.11a7 7 0 0 0-14 0V474.52a11.056 11.056 0 0 1-22.1.43l-4.683-148.93h67.573l-4.682 148.9A11.022 11.022 0 0 1 418.47 485.58zm49.736-252.359a7 7 0 0 0-.036.709v92.81a9.67 9.67 0 0 1-19.34 0V306.415l.1-3.075a7.013 7.013 0 0 0-.1-1.4V264.62a7 7 0 0 0-14 0v41.572l-.183 5.828H366.194l-.287-9.12a6.959 6.959 0 0 0-.1-.92V264.62a7 7 0 0 0-14 0v61.66a9.931 9.931 0 0 1-9.545 10.121 9.663 9.663 0 0 1-9.765-9.651V233.93a6.92 6.92 0 0 0-.036-.705A24.381 24.381 0 0 1 356.72 206.4h14.027l24.712 24.038a7 7 0 0 0 9.671.087L430.84 206.4h13.12a24.368 24.368 0 0 1 24.246 26.822zM339.272 138.81a7 7 0 0 0 11.078-5.69V19.42a7 7 0 0 0-7-7H216.12a7 7 0 0 0-7 7V36.16H168.65a7 7 0 0 0-7 7v113.7a7 7 0 0 0 11.078 5.69l28.312-20.29h94.84a7 7 0 0 0 7-7V118.52h8.081zM223.12 26.42H336.35v93.072L317.288 105.83a7 7 0 0 0-4.078-1.31H297.439a6.841 6.841 0 0 0-3.118 0h-71.2zm65.76 101.84H198.79a7 7 0 0 0-4.078 1.31L175.65 143.232V50.16h33.47v61.36a7 7 0 0 0 7 7h72.76z" fill="#5d5d5a" class="color000 svgShape"></path><path d="M239.38 51.58h26.11a7 7 0 0 0 0-14H239.38a7 7 0 0 0 0 14zM320.09 91.94a7 7 0 0 0 0-14H239.38a7 7 0 0 0 0 14zM239.38 70.57h80.71a7 7 0 1 0 0-14H239.38a7 7 0 0 0 0 14z" fill="#5d5d5a" class="color000 svgShape"></path></g></svg></g></svg>