<svg xmlns="http://www.w3.org/2000/svg" enable-background="new 0 0 64 64" viewBox="0 0 64 64"><rect width="61" height="20" x="1.5" y="42.5" fill="#fff"/><rect width="59" height="20" x="3.5" y="42.5" fill="#2baefe"/><rect width="56" height="18" x="3.5" y="42.5" fill="#3cf"/><polygon fill="#fff" points="33.5 39.5 9.5 39.5 9.5 11.5 33.5 1.5"/><polygon fill="#fa6e34" points="33.5 1.5 33.5 39.5 11.5 39.5 11.5 10.67"/><polygon fill="#fa8840" points="30.5 2.75 30.5 39.5 11.5 39.5 11.5 10.67"/><polygon fill="#fa6e34" points="54.5 18.5 54.5 39.5 33.5 39.5 33.5 8.5 51.5 17.07"/><polygon fill="#fa8840" points="51.5 17.07 51.5 39.5 33.5 39.5 33.5 8.5"/><rect width="53" height="3" x="5.5" y="39.5" fill="#fff"/><rect width="51" height="3" x="7.5" y="39.5" fill="#ffb612"/><rect width="48" height="3" x="7.5" y="39.5" fill="#fdcc32"/><rect width="15" height="14" x="24.5" y="48.5" fill="#ffb612"/><rect width="12" height="12" x="24.5" y="48.5" fill="#fdcc32"/><rect width="4" height="4" x="14.5" y="29.5" fill="#e0e4ff"/><rect width="4" height="4" x="24.5" y="29.5" fill="#e0e4ff"/><rect width="4" height="4" x="14.5" y="19.5" fill="#e0e4ff"/><rect width="4" height="4" x="24.5" y="19.5" fill="#e0e4ff"/><rect width="4" height="4" x="37.5" y="29.5" fill="#e0e4ff"/><rect width="4" height="4" x="46.5" y="29.5" fill="#e0e4ff"/><rect width="4" height="4" x="37.5" y="19.5" fill="#e0e4ff"/><rect width="4" height="4" x="46.5" y="19.5" fill="#e0e4ff"/><rect width="2" height="4" x="46.5" y="19.5" fill="#fff"/><rect width="2" height="4" x="37.5" y="19.5" fill="#fff"/><rect width="2" height="4" x="24.5" y="19.5" fill="#fff"/><rect width="2" height="4" x="14.5" y="19.5" fill="#fff"/><rect width="2" height="4" x="24.5" y="29.5" fill="#fff"/><rect width="2" height="4" x="14.5" y="29.5" fill="#fff"/><rect width="2" height="4" x="37.5" y="29.5" fill="#fff"/><rect width="2" height="4" x="46.5" y="29.5" fill="#fff"/><rect width="4" height="4" x="24.5" y="9.5" fill="#e0e4ff"/><rect width="2" height="4" x="24.5" y="9.5" fill="#fff"/><path fill="#1c225c" d="M62.5 63h-61C1.224 63 1 62.776 1 62.5S1.224 62 1.5 62H62V43H2v10.5C2 53.776 1.776 54 1.5 54S1 53.776 1 53.5v-11C1 42.224 1.224 42 1.5 42h61c.276 0 .5.224.5.5v20C63 62.776 62.776 63 62.5 63zM33.5 40h-24C9.224 40 9 39.776 9 39.5v-28c0-.202.121-.384.308-.462l24-10c.153-.062.331-.047.47.046S34 1.333 34 1.5v38C34 39.776 33.776 40 33.5 40zM10 39h23V2.25l-23 9.583V39z"/><path fill="#1c225c" d="M54.5,40h-21c-0.276,0-0.5-0.224-0.5-0.5v-31c0-0.172,0.088-0.331,0.233-0.423
				c0.145-0.091,0.327-0.104,0.481-0.028l21,10c0.249,0.118,0.355,0.417,0.236,0.666c-0.118,0.249-0.418,0.355-0.666,0.236L34,9.292
				V39h20V27.5c0-0.276,0.224-0.5,0.5-0.5s0.5,0.224,0.5,0.5v12C55,39.776,54.776,40,54.5,40z"/><path fill="#1c225c" d="M58.5 43h-53C5.224 43 5 42.776 5 42.5v-3C5 39.224 5.224 39 5.5 39h53c.276 0 .5.224.5.5v3C59 42.776 58.776 43 58.5 43zM6 42h52v-2H6V42zM39.5 63h-15c-.276 0-.5-.224-.5-.5v-14c0-.276.224-.5.5-.5h15c.276 0 .5.224.5.5v14C40 62.776 39.776 63 39.5 63zM25 62h14V49H25V62zM18.5 34h-4c-.276 0-.5-.224-.5-.5v-4c0-.276.224-.5.5-.5h4c.276 0 .5.224.5.5v4C19 33.776 18.776 34 18.5 34zM15 33h3v-3h-3V33zM28.5 34h-4c-.276 0-.5-.224-.5-.5v-4c0-.276.224-.5.5-.5h4c.276 0 .5.224.5.5v4C29 33.776 28.776 34 28.5 34zM25 33h3v-3h-3V33zM18.5 24h-4c-.276 0-.5-.224-.5-.5v-4c0-.276.224-.5.5-.5h4c.276 0 .5.224.5.5v4C19 23.776 18.776 24 18.5 24zM15 23h3v-3h-3V23zM28.5 24h-4c-.276 0-.5-.224-.5-.5v-4c0-.276.224-.5.5-.5h4c.276 0 .5.224.5.5v4C29 23.776 28.776 24 28.5 24zM25 23h3v-3h-3V23zM41.5 34h-4c-.276 0-.5-.224-.5-.5v-4c0-.276.224-.5.5-.5h4c.276 0 .5.224.5.5v4C42 33.776 41.776 34 41.5 34zM38 33h3v-3h-3V33zM50.5 34h-4c-.276 0-.5-.224-.5-.5v-4c0-.276.224-.5.5-.5h4c.276 0 .5.224.5.5v4C51 33.776 50.776 34 50.5 34zM47 33h3v-3h-3V33zM41.5 24h-4c-.276 0-.5-.224-.5-.5v-4c0-.276.224-.5.5-.5h4c.276 0 .5.224.5.5v4C42 23.776 41.776 24 41.5 24zM38 23h3v-3h-3V23zM50.5 24h-4c-.276 0-.5-.224-.5-.5v-4c0-.276.224-.5.5-.5h4c.276 0 .5.224.5.5v4C51 23.776 50.776 24 50.5 24zM47 23h3v-3h-3V23zM28.5 14h-4c-.276 0-.5-.224-.5-.5v-4C24 9.224 24.224 9 24.5 9h4C28.776 9 29 9.224 29 9.5v4C29 13.776 28.776 14 28.5 14zM25 13h3v-3h-3V13zM1.5 59C1.224 59 1 58.776 1 58.5v-2C1 56.224 1.224 56 1.5 56S2 56.224 2 56.5v2C2 58.776 1.776 59 1.5 59zM54.5 25c-.276 0-.5-.224-.5-.5v-2c0-.276.224-.5.5-.5s.5.224.5.5v2C55 24.776 54.776 25 54.5 25z"/></svg>