<svg xmlns="http://www.w3.org/2000/svg" enable-background="new 0 0 68 68" viewBox="0 0 68 68"><path fill="#FFF" d="M57.7975,22.0987c1.3083-7.7049-6.4322-13.4648-13.3359-10.4403 c-4.9892-7.8385-16.4904-7.3021-20.7894,0.837C16.7947,7.8388,7.251,13.6077,8.8091,22.2063 c-3.8516,0.5961-6.8088,3.8972-6.8088,7.9158c0,4.4403,3.5996,8.0398,8.0398,8.0398h47.9204c4.4403,0,8.0398-3.5995,8.0398-8.0398 C66.0002,25.7503,62.4591,22.0061,57.7975,22.0987z"/><path fill="#DEE1E6" d="M65.9833,30.6547c-0.2771,4.2731-4.0163,7.504-8.2984,7.504H10.0407c-3.21,0-5.9901-1.89-7.28-4.61 l39.9317,0c2.1173,0,4.2212-0.5968,5.9209-1.8594c4.1051-3.0493,3.0073-7.2606,3.0073-7.2606 c-0.6608-3.4125-3.9623-5.4548-6.8498-6.6101c-2.4109-0.9645-4.6392-2.3092-6.6034-4.0076 c-2.9361-2.5387-8.0122-4.0167-11.7268-4.8023c5.5573-4.8199,14.0723-3.5588,18.02,2.65c6.9118-3.0457,14.6449,2.7583,13.34,10.44 C62.8858,22.0988,66.2725,26.1948,65.9833,30.6547z"/><path fill="#FF7E7E" d="M34.0008,61.9238C11.6327,57.6358,16.1456,25.876,16.1456,25.876 c12.1331,1.6309,17.8552-5.947,17.8552-5.947s5.7221,7.5779,17.8552,5.947C51.856,25.876,56.3691,57.6358,34.0008,61.9238z"/><path fill="#EF3D3D" d="M34.0007,61.929c-3.5539-0.6785-6.4293-2.057-8.7555-3.8985 c16.7787-5.6755,18.1787-23.5203,17.7372-32.6311c2.4339,0.6569,5.3955,0.9477,8.8739,0.4739 C51.8563,25.8732,56.3686,57.632,34.0007,61.929z"/><path d="M58.9175,21.1467c0.5303-7.6258-6.979-13.1992-14.0791-10.7109c-5.4377-7.4762-16.6255-7.021-21.5181,0.6763 C16.0522,7.1706,6.8717,12.8592,7.6914,21.4201C3.7607,22.4631,1,25.9807,1,30.1223c0,4.9844,4.0552,9.0396,9.04,9.0396h5.1962 c1.2041,9.5916,5.4332,21.2247,18.5763,23.7441c0.0625,0.0122,0.1255,0.0181,0.1885,0.0181s0.126-0.0059,0.1885-0.0181 c13.1431-2.5194,17.372-14.1525,18.576-23.7441h5.195c4.9844,0,9.0396-4.0552,9.0396-9.0396 C67,25.4665,63.4531,21.6228,58.9175,21.1467z M34.001,60.905c-18.8218-3.7754-17.4731-28.6709-16.9722-33.9204 c7.1772,0.6921,13.1953-1.7009,16.9722-5.5527c3.7649,3.8385,9.7747,6.2465,16.9727,5.5527 C51.4775,32.2312,52.8418,57.1257,34.001,60.905z M57.9604,37.1618H52.977c0.5486-6.3057-0.1127-11.299-0.1308-11.4263 c-0.0776-0.5439-0.5747-0.9185-1.1235-0.8506c-7.6872,1.0353-14.2079-1.9998-16.9238-5.5586c-0.3779-0.501-1.2183-0.501-1.5962,0 c-2.6765,3.5486-9.187,6.6006-16.9238,5.5586c-0.5474-0.0684-1.0464,0.3066-1.1235,0.8506 c-0.0181,0.1273-0.6793,5.1205-0.1306,11.4263H10.04c-3.8818,0-7.04-3.1577-7.04-7.0396c0-3.4795,2.5073-6.3931,5.9619-6.9277 c0.2666-0.0415,0.5054-0.1885,0.6616-0.4082s0.2178-0.4932,0.1694-0.7583c-1.3978-7.715,7.1561-12.8774,13.3188-8.7046 c0.2354,0.1587,0.5278,0.21,0.8027,0.1421c0.2759-0.0688,0.5093-0.252,0.6421-0.5034c3.9651-7.5067,14.497-7.9387,19.061-0.7666 c0.2642,0.4155,0.793,0.5752,1.2451,0.3789c6.1871-2.7101,13.1232,2.4375,11.9487,9.3569 c-0.0498,0.2939,0.0337,0.5947,0.2285,0.8203c0.1943,0.2261,0.4849,0.3521,0.7773,0.3472l0.1494-0.0015 c3.8779,0,7.0332,3.1514,7.0332,7.0249C65,34.0041,61.8423,37.1618,57.9604,37.1618z"/><path fill="#FFF" d="M34.9386 33.8429c.0214-.0645.0317-.1283.0396-.1959.0046-.0389.0228-.073.0228-.1131 0-.027-.0133-.0497-.0154-.0761-.002-.027.0074-.0532.0032-.0801-.0066-.0415-.0313-.076-.0428-.116-.0183-.0634-.0369-.1235-.0668-.181-.0289-.0562-.0649-.1044-.1039-.1541-.0413-.0526-.0826-.1011-.1334-.1444-.02-.0172-.0316-.0417-.053-.0574l-2.5991-1.8882c-.4468-.3242-1.0718-.2241-1.397.2212-.3247.4468-.2256 1.0723.2212 1.397l.5769.4191c-4.5591 1.1663-7.9441 5.2967-7.9441 10.2142 0 .5522.4478 1 1 1s1-.4478 1-1c0-3.9644 2.7147-7.2978 6.3801-8.2635l-.5236.7205c-.3247.4468-.2256 1.0723.2212 1.397.1777.1289.3833.1909.5869.1909.3096 0 .6143-.1431.8101-.4121l1.8887-2.5991c.0223-.0307.0282-.0687.0467-.1014C34.8895 33.9631 34.9176 33.9065 34.9386 33.8429zM44.5552 43.0881c0-.5522-.4478-1-1-1s-1 .4478-1 1c0 3.9695-2.7218 7.3065-6.3943 8.2672l.5374-.7399c.3247-.4468.2256-1.0723-.2212-1.397-.4473-.3247-1.0728-.2236-1.397.2212l-1.8882 2.5991c-.0334.046-.0434.0993-.0679.1485-.0209.0401-.0402.0785-.0556.1215-.026.0765-.0397.1516-.0466.2306-.0038.0355-.0208.0664-.0208.1029 0 .0257.0127.0472.0146.0724.0052.0582.0189.1119.0341.1683.0204.0801.044.1552.0824.2263.0151.0275.0342.0511.0521.0772.0601.0899.1293.1674.2145.2335.0059.0045.0084.0114.0145.0157l2.5986 1.8882c.1777.1289.3833.1909.5869.1909.3096 0 .6143-.1431.8101-.4121.3247-.4468.2256-1.0723-.2212-1.397l-.5608-.4075C41.1779 52.1266 44.5552 48 44.5552 43.0881z"/></svg>